<svg xmlns="http://www.w3.org/2000/svg" width="75" height="68" fill="none" viewBox="0 0 75 68"><mask id="a" width="75" height="68" x="0" y="0" maskUnits="userSpaceOnUse" style="mask-type:alpha"><path fill="#8CFF31" fill-rule="evenodd" d="M1.624 7.563C.309 10.309.309 13.903.309 21.09v12.301c0 7.188 0 10.783 1.315 13.528 1.156 2.416 3.002 4.38 5.271 5.61 2.58 1.399 5.959 1.399 12.714 1.399h20.916l11.958 13.039c1.888 2.062 5.175.64 5.175-2.24V53.924c4.99-.025 7.782-.198 9.989-1.394 2.27-1.23 4.115-3.194 5.272-5.61 1.314-2.745 1.314-6.34 1.314-13.528v-12.3c0-7.19 0-10.783-1.314-13.529-1.157-2.415-3.002-4.379-5.272-5.61C65.067.556 61.689.556 54.933.556H19.61c-6.755 0-10.133 0-12.714 1.399-2.27 1.23-4.115 3.194-5.271 5.609Z" clip-rule="evenodd"/></mask><g mask="url(#a)"><path fill="#8CFF31" fill-rule="evenodd" d="M1.624 7.563C.309 10.309.309 13.903.309 21.09v12.301c0 7.188 0 10.783 1.315 13.528 1.156 2.416 3.002 4.38 5.271 5.61 2.58 1.399 5.959 1.399 12.714 1.399h20.916l11.958 13.039c1.888 2.062 5.175.64 5.175-2.24V53.924c4.99-.025 7.782-.198 9.989-1.394 2.27-1.23 4.115-3.194 5.272-5.61 1.314-2.745 1.314-6.34 1.314-13.528v-12.3c0-7.19 0-10.783-1.314-13.529-1.157-2.415-3.002-4.379-5.272-5.61C65.067.556 61.689.556 54.933.556H19.61c-6.755 0-10.133 0-12.714 1.399-2.27 1.23-4.115 3.194-5.271 5.609Z" clip-rule="evenodd"/><path stroke="#07021A" d="M-25.394-31.886c7.434-.078 17.247.09 26.184.732m6.218 58.297C23.11 18.961 49.953 5.494 51.364 5.494c1.9 0-58.519 1.901-63.458 0-4.94-1.9 21.659-17.74 34.579-27.877 6.544-5.134-6.27-7.661-21.695-8.77m6.218 58.296-3.523 1.793c3.63-.247 7.95-.513 12.54-.759m-9.017-1.034c3.523 59.03 3.727 31.371 9.017 15.098 5.29-16.272 9.12-42.449 12.16-29.777 3.04 12.671 38.378 50.051 47.498 57.654 9.12 7.603-28.12-79.196-24.32-70.326 3.8 8.87 15.96 29.144 43.32 58.922 27.359 29.778-39.52 8.236-53.579 11.404-14.06 3.168 33.44-15.839 39.9-18.373 6.459-2.534-72.58 8.236-77.519 6.97-4.94-1.268 51.299-25.977 53.579-29.779 1.305-2.175-17.151-1.886-34.58-1.082M.79-31.154c-19.344 43.618-31.504 73.395-26.184 73.395S9.945 28.303 14.125 12.464c4.18-15.84-9.12-65.891 14.06-55.12 23.179 10.77 79.797 4.434 69.158 29.777-10.64 25.343 11.779 35.48-24.7 34.213-36.479-1.267-28.464-28.141-50.158 6.52m0 0c-2.183.101-4.35.21-6.46.323m-22.04 47.01c4.94-5.069 46.468-120.716 44.46-117.844-2.01 2.873-25.337 66.995-22.42 70.834m62.698-88.573C68.083-22.383 31.984 77.72 36.544 70.118c4.56-7.602 36.1-85.531 39.14-77.928"/></g></svg>