<svg xmlns="http://www.w3.org/2000/svg" width="72" height="66" fill="none" viewBox="0 0 72 66"><mask id="a" width="72" height="66" x="0" y="0" maskUnits="userSpaceOnUse" style="mask-type:alpha"><path fill="#8CFF31" fill-rule="evenodd" d="M1.627 7.3C.36 9.941.36 13.4.36 20.32v11.837c0 6.918 0 10.378 1.266 13.02C2.74 47.5 4.516 49.39 6.7 50.575c2.483 1.347 5.734 1.347 12.236 1.347h20.129L50.573 64.47c1.817 1.985 4.981.616 4.981-2.155V51.917c4.803-.023 7.489-.19 9.613-1.342 2.184-1.184 3.96-3.074 5.073-5.398 1.266-2.642 1.266-6.102 1.266-13.02V20.32c0-6.918 0-10.377-1.266-13.02-1.112-2.324-2.888-4.214-5.073-5.398C62.684.555 59.433.555 52.931.555H18.936C12.434.555 9.183.555 6.7 1.9 4.516 3.085 2.74 4.975 1.627 7.3Z" clip-rule="evenodd"/></mask><g mask="url(#a)"><path fill="#8CFF31" fill-rule="evenodd" d="M1.627 7.3C.36 9.941.36 13.4.36 20.32v11.837c0 6.918 0 10.378 1.266 13.02C2.74 47.5 4.516 49.39 6.7 50.575c2.483 1.347 5.734 1.347 12.236 1.347h20.129L50.573 64.47c1.817 1.985 4.981.616 4.981-2.155V51.917c4.803-.023 7.489-.19 9.613-1.342 2.184-1.184 3.96-3.074 5.073-5.398 1.266-2.642 1.266-6.102 1.266-13.02V20.32c0-6.918 0-10.377-1.266-13.02-1.112-2.324-2.888-4.214-5.073-5.398C62.684.555 59.433.555 52.931.555H18.936C12.434.555 9.183.555 6.7 1.9 4.516 3.085 2.74 4.975 1.627 7.3Z" clip-rule="evenodd"/><path fill="#07021A" d="M21.113 62.065c8.24 3.353 9.6 6.306 5.616 13.674 3.41-7.356 6.364-8.696 13.858-5.144-1.746-.965-10.7-3.633-5.616-13.674-3.138 8.05-6.345 8.712-13.858 5.144ZM2.458 21.722c7.691-6.193 11.289-5.922 16.296 1.912-5.304-7.27-5.013-10.86 2.469-16.221-1.877 1.175-9.287 8.429-16.296-1.912 6.123 7.38 5.039 10.85-2.468 16.22Zm24.613 7.612c2.63-4.736 4.545-5.363 8.818-2.494-4.305-2.523-4.93-4.385-2.227-8.66-.714.987-2.971 6.196-8.817 2.494 4.75 2.404 4.94 4.375 2.226 8.66ZM23.53 57.706c.906-2.246 1.726-2.63 3.8-1.598-2.068-.878-2.453-1.668-1.488-3.715-.264.478-.976 2.913-3.8 1.599 2.26.8 2.457 1.663 1.488 3.715Z"/><ellipse cx="6.496" cy="6.722" fill="#07021A" rx="6.496" ry="6.722" transform="scale(1 -1) rotate(-52.673 -37.97 -29.57)"/><ellipse cx="3.51" cy="3.632" fill="#07021A" rx="3.51" ry="3.632" transform="scale(1 -1) rotate(-52.673 -32.524 -54.432)"/><ellipse cx="3.51" cy="3.632" fill="#07021A" rx="3.51" ry="3.632" transform="scale(1 -1) rotate(-52.673 .612 8.554)"/><path fill="#07021A" d="M52.161 51.47c3.652-2.94 5.36-2.812 7.737.908-2.518-3.452-2.38-5.156 1.172-7.702-.89.558-4.409 4.002-7.737-.907 2.907 3.504 2.393 5.151-1.172 7.701Zm-2.427-25.306c8.24 3.352 9.599 6.305 5.615 13.673 3.41-7.356 6.365-8.696 13.858-5.144-1.745-.965-10.699-3.632-5.615-13.674-3.138 8.05-6.346 8.712-13.858 5.145Zm2.416-4.36c.907-2.246 1.727-2.631 3.8-1.598-2.067-.878-2.452-1.669-1.487-3.715-.263.477-.976 2.913-3.8 1.598 2.26.8 2.457 1.664 1.488 3.715Z"/><ellipse cx="6.496" cy="6.722" fill="#07021A" rx="6.496" ry="6.722" transform="scale(1 -1) rotate(-52.673 12.603 -40.528)"/><ellipse cx="3.51" cy="3.632" fill="#07021A" rx="3.51" ry="3.632" transform="scale(1 -1) rotate(-52.673 18.05 -65.39)"/></g></svg>