<svg xmlns="http://www.w3.org/2000/svg" xml:space="preserve" id="Layer_1" x="0" y="0" enable-background="new 0 0 72 65" version="1.1" viewBox="0 0 72 65"><style>.st0{fill-rule:evenodd;clip-rule:evenodd;fill:#8cff31;filter:url(#Adobe_OpacityMaskFilter)}.st1{mask:url(#a_00000159463712515443119130000000282969412255070594_)}.st2{fill-rule:evenodd;clip-rule:evenodd;fill:#8cff31}.st3{fill:#07021a}</style><defs><filter id="Adobe_OpacityMaskFilter" width="77.3" height="73" x="-1.1" y="-3.7" filterUnits="userSpaceOnUse"><feColorMatrix values="1 0 0 0 0 0 1 0 0 0 0 0 1 0 0 0 0 0 1 0"/></filter></defs><mask id="a_00000159463712515443119130000000282969412255070594_" width="77.3" height="73" x="-1.1" y="-3.7" maskUnits="userSpaceOnUse"><path d="M1.9 6.8C.6 9.4.6 12.9.6 19.8v11.8c0 6.9 0 10.4 1.3 13 1.1 2.4 2.9 4.3 5 5.5 2.5 1.3 5.7 1.3 12.2 1.3h20.1L50.8 64c1.8 2 5 .6 5-2.2V51.4c4.8 0 7.5-.2 9.6-1.3 2.2-1.2 4-3.1 5.1-5.4 1.3-2.6 1.3-6.1 1.3-13V19.8c0-6.9 0-10.4-1.3-13-1.1-2.3-2.9-4.2-5.1-5.4C62.9.1 59.7.1 53.2.1h-34C12.7.1 9.4.1 7 1.4 4.8 2.6 3 4.5 1.9 6.8z" class="st0"/></mask><g class="st1"><path d="M1.9 6.8C.6 9.4.6 12.9.6 19.8v11.8c0 6.9 0 10.4 1.3 13 1.1 2.4 2.9 4.3 5 5.5 2.5 1.3 5.7 1.3 12.2 1.3h20.1L50.8 64c1.8 2 5 .6 5-2.2V51.4c4.8 0 7.5-.2 9.6-1.3 2.2-1.2 4-3.1 5.1-5.4 1.3-2.6 1.3-6.1 1.3-13V19.8c0-6.9 0-10.4-1.3-13-1.1-2.3-2.9-4.2-5.1-5.4C62.9.1 59.7.1 53.2.1h-34C12.7.1 9.4.1 7 1.4 4.8 2.6 3 4.5 1.9 6.8z" class="st2"/><path d="M1.9 4.2v-.4l.3-.3c.1 0 .3 0 .4.1.3 0 .4.1.4.3v.4c-.1.2-.2.3-.4.3-.3.1-.6-.1-.7-.4zm5.9-1.1-.2-.7 2.6-.7.2.7-2.6.7zM6.3-2.3 6.1-3l2.6-.7.3.7-2.7.7zm2.4 5.2L7-3.3l.9-.2 1.6 6.2-.8.2zm2.9-3.2c-.1-.5-.2-1-.1-1.4.1-.4.2-.7.4-1 .2-.3.5-.5.9-.6.3-.1.5-.1.8 0 .3.1.5.2.8.5s.4.6.6 1.1l-.3.2c-.1-.3-.2-.6-.4-.8-.1-.2-.3-.3-.5-.4-.2-.1-.4-.1-.6 0-.4.1-.6.3-.7.7-.1.4-.1.8 0 1.3.1.3.2.6.4.8.2.2.3.4.5.4s.4.1.6 0c.2-.1.4-.2.6-.4.2-.2.3-.4.5-.7l.2.6c-.1.3-.3.6-.5.8-.2.2-.5.4-.8.5-.3.1-.6.1-.9 0-.3-.1-.6-.3-.8-.6s-.6-.5-.7-1zM-.4 17c-.1-.3-.1-.5 0-.8.1-.3.3-.5.6-.8.3-.2.7-.4 1.3-.6l.5-.1.2.6-.5.2c-.4.1-.7.3-.8.4-.2.1-.3.3-.3.4 0 .1-.1.3 0 .4.1.2.1.3.3.4.1.1.3.1.5 0 .3-.1.5-.2.7-.4.2-.2.4-.4.5-.7l.2.6c-.1.3-.3.5-.5.8-.2.2-.5.4-.9.5-.4.1-.6.1-.9.1-.4-.1-.8-.5-.9-1zm-.7-3c.2-.2.4-.4.7-.5.3-.2.6-.3.8-.4.3-.1.7-.1 1 0 .3.1.6.2.8.4.2.2.4.5.5.9l.5 1.8c0 .1.1.2.1.3 0 .1.1.2.1.3l.2.4-.8.2-.4-.8-.5-1.9c-.1-.4-.3-.6-.5-.8-.2-.1-.5-.1-.8-.1l-.6.3c-.2.1-.4.3-.5.4-.1.1-.6-.5-.6-.5zm6.3 2.3v-.4l.3-.3c.1 0 .3 0 .4.1.1.1.2.2.3.4v.4l-.3.3c-.3 0-.6-.2-.7-.5zm5.8-1.1-.2-.7 2.6-.7.2.7-2.6.7zM9.6 9.8l-.2-.7 2.6-.7.2.7-2.6.7zm2.3 5.2-1.6-6.2.9-.2 1.6 6.2-.9.2zm2.9-3.2c-.1-.5-.2-1-.1-1.4.1-.4.2-.7.4-1 .3-.2.6-.4.9-.5.3-.1.5-.1.8 0 .3.1.5.2.8.5s.4.6.6 1.1l-.3.2c-.1-.3-.2-.6-.4-.8-.1-.2-.3-.3-.5-.4-.2-.1-.4-.1-.6 0-.4.1-.6.3-.7.7-.1.4-.1.8 0 1.3.1.3.2.6.4.8.2.2.3.4.5.4.2.1.4.1.6 0 .2-.1.4-.2.6-.4.2-.2.3-.4.5-.7l.2.6c-.1.3-.3.6-.5.8-.2.2-.5.4-.8.5-.3.1-.6.1-.9 0-.3-.1-.6-.3-.8-.6-.4-.2-.6-.6-.7-1.1zm3.9 1.4-.4-.8-1.5-5.5.8-.4 1.5 5.5c0 .1.1.2.1.3 0 .1.1.2.1.3l.2.4-.8.2zm5.2-2 .3-.7c.2.1.4.2.7.2.2 0 .5 0 .8-.1.3-.1.5-.2.6-.3.1-.1.2-.3.1-.5 0-.1-.1-.2-.2-.3-.1-.1-.2-.1-.4-.2s-.5-.1-.7-.1c-.6 0-1-.1-1.3-.3-.3-.2-.5-.4-.6-.7-.1-.2-.1-.5 0-.7.1-.2.3-.4.5-.6.2-.2.5-.3.8-.4.3-.1.5-.1.8-.1.3 0 .6.1.8.2l-.1.8c-.2-.1-.4-.1-.6-.2h-.7c-.3.1-.5.2-.6.3 0 .2-.1.4 0 .5 0 .1.1.2.2.3.1.1.3.1.4.1.2 0 .4 0 .7.1.4 0 .8.1 1 .2.2 0 .4.1.6.3.1.2.2.3.3.6.1.2.1.5 0 .7-.1.2-.3.5-.5.6-.3.2-.6.3-.9.4-.3.1-.7.1-1 .1-.4 0-.7-.1-1-.2zm4.7-3.1c-.1-.5-.2-1-.1-1.4.1-.4.3-.7.5-1 .3-.3.6-.5 1-.6.4-.1.8-.1 1.1 0 .4.1.7.3 1 .6.3.3.5.7.6 1.3.1.5.2 1 .1 1.4-.1.4-.3.7-.5 1-.3.3-.6.5-1 .6-.4.1-.8.1-1.1 0-.4-.1-.7-.3-.9-.6-.4-.4-.6-.8-.7-1.3zm.8-.3c.1.4.2.6.4.9.2.2.4.4.6.4.2.1.5.1.7 0 .3-.1.5-.2.6-.4.1-.2.2-.4.3-.7 0-.3 0-.6-.1-.9-.1-.4-.2-.6-.4-.9-.1-.2-.3-.4-.6-.5-.2-.1-.5-.1-.7 0-.2.2-.4.3-.6.5-.2.2-.2.4-.3.7 0 .3 0 .6.1.9zM33.6 5l-.2-.7 3-.8.2.7-3 .8zm1.8 3.7-1.3-5c-.1-.3-.1-.6 0-.9.1-.3.2-.5.4-.7.2-.2.4-.3.7-.4.3-.1.7-.1 1-.1v.7h-.8c-.2.1-.4.2-.5.4-.1.2-.1.4 0 .7l1.3 4.9-.8.4zm2-4.7-.2-.7 3-.8.2.7-3 .8zm1.5 2.3L37.8 2l.8-.4L39.7 6c.1.2.2.4.3.5.1.1.3.1.6 0 .1 0 .2-.1.3-.1.1-.1.2-.1.3-.2l.3.7c-.1.1-.3.2-.4.3-.2.1-.3.1-.5.2s-.5.1-.7 0c-.2-.1-.5-.2-.6-.4-.2-.1-.3-.4-.4-.7zm2.4-4.1.9-.2 2.1 3.5.2.8-.5.1-2.7-4.2zm2.8 3.3.2-4.1.5-.1.3.9-.2 4-.4.1-.4-.8zm.5-3.2-.3-.9.5-.1L47 4.7l.2.8-.5.1c.1 0-2.1-3.3-2.1-3.3zm2.2 2.4.1-4.1.8-.2-.3 5-.4.1c.1.1-.2-.8-.2-.8zm3.1-1.2c-.1-.3-.1-.5 0-.8.1-.2.3-.5.6-.7.3-.2.7-.4 1.3-.6l.6-.2.2.6-.6.2c-.4.1-.7.3-.8.4-.2.1-.3.3-.3.4 0 .1-.1.3 0 .4 0 .2.1.3.3.4.1.1.3.1.5 0 .3-.1.5-.2.7-.4.2-.2.4-.4.5-.7l.2.6c-.1.3-.3.5-.5.8-.2.2-.5.4-.9.5-.2.1-.4.1-.7 0-.6 0-.9-.4-1.1-.9zm-.6-3c.2-.2.4-.4.7-.5.3-.2.6-.3.8-.4.3-.1.7-.1 1 0 .3.1.6.2.8.4.2.2.4.5.5.9l.5 1.8c0 .1.1.2.1.3 0 .1.1.2.1.3l.2.4-.8.2-.4-.8-.5-1.9c-.1-.4-.3-.6-.5-.8-.2-.1-.5-.1-.8-.1l-.6.3c-.2.1-.4.3-.5.4-.2.1-.6-.5-.6-.5zm5.3-1.9.8-.2.4.8 1 3.7-.8.3-.9-3.5C55-.4 55-.6 55-.7c0-.1-.1-.2-.1-.3-.1 0-.3-.4-.3-.4zm1.3 1.3-.2-.6c.1-.3.2-.6.5-.9.2-.3.5-.4.8-.5l.2.9c-.4.1-.7.3-.9.5-.2.1-.3.4-.4.6zM59 0c-.1-.5-.2-1-.1-1.4.1-.4.3-.7.5-1 .3-.3.6-.5 1-.6.3-.1.7-.1 1 0 .3.1.6.3.9.6.3.3.5.7.6 1.2v.2c.1 0 .1 0 .1.1l-3.2.9-.2-.7 2.6-.7-.1.4c-.1-.6-.3-1-.6-1.1-.3-.2-.6-.2-.9-.2-.2.1-.4.2-.6.4-.1.2-.2.4-.3.7 0 .3 0 .6.1 1 .1.3.2.6.4.8.2.2.4.3.7.4.2.1.5.1.8 0 .2-.1.4-.1.6-.3.2-.1.3-.2.4-.4l.6.5-.6.6c-.2.1-.5.2-.8.3-.4.1-.8.1-1.2 0-.4-.1-.7-.3-1-.6-.3-.2-.6-.6-.7-1.1zm6 .3v-.4l.3-.3c.1 0 .3 0 .4.1.3 0 .3.1.4.3v.4l-.3.3c-.4.1-.7-.1-.8-.4zM2.8 29.1c-.1-.3-.1-.5 0-.8.1-.3.3-.5.6-.8.3-.2.7-.4 1.3-.6l.6-.2.2.6-.5.2c-.5.2-.8.4-1 .5-.2.1-.3.3-.3.4 0 .1-.1.3 0 .4 0 .2.1.3.3.4.1.1.3.1.5 0 .3-.1.5-.2.7-.4.2-.2.4-.4.5-.7l.2.6c-.1.3-.3.5-.5.8-.2.2-.5.4-.9.5-.2.1-.4.1-.7 0-.5 0-.8-.4-1-.9zm-.6-3c.2-.2.4-.4.7-.5.3-.2.6-.3.8-.4.3-.1.7-.1 1 0 .3.1.6.2.8.4.2.2.4.5.5.9l.5 1.8c0 .1.1.2.1.3 0 .1.1.2.1.3l.2.4-.8.2-.4-.8-.5-1.9c-.2-.4-.3-.7-.6-.8-.2-.1-.5-.1-.8-.1l-.6.3c-.2.1-.4.3-.5.4l-.5-.5zm6.2 2.3V28c.1-.1.2-.2.4-.3.1 0 .3 0 .4.1.1.1.2.2.3.4v.4c-.1.1-.2.2-.4.3-.3 0-.6-.2-.7-.5zm5.9-1.1-.2-.7 2.6-.7.2.7-2.6.7zm-1.5-5.4-.2-.7 2.6-.7.2.7-2.6.7zm2.4 5.2-1.6-6.2.9-.2 1.6 6.2-.9.2zm2.8-3.2c-.1-.5-.2-1-.1-1.4.1-.4.2-.7.4-1 .2-.3.5-.5.9-.6.3-.1.5-.1.8 0 .3.1.5.2.8.5.2.3.4.6.6 1.1l-.3.2c-.1-.3-.2-.6-.4-.8-.1-.2-.3-.3-.5-.4-.2-.1-.4-.1-.6 0-.4.1-.6.3-.7.7-.1.4-.1.8 0 1.3.1.3.2.6.4.8.2.2.3.4.5.4.2.1.4.1.6 0 .2-.1.5-.2.6-.4.2-.2.3-.4.5-.7l.2.6c-.1.3-.3.6-.5.8-.2.2-.5.4-.8.5-.3.1-.6.1-.9 0-.3-.1-.6-.3-.8-.6-.3-.1-.5-.5-.7-1zm3.9 1.4-.4-.8L20 19l.8-.4 1.5 5.5c0 .1.1.2.1.3 0 .1.1.2.1.3l.2.4-.8.2zm5.3-2 .3-.7c.2.1.4.2.7.2.2 0 .5 0 .8-.1.3-.1.5-.2.6-.3.1-.1.2-.3.1-.5 0-.1-.1-.2-.2-.3-.1-.1-.2-.1-.4-.2s-.5-.1-.7-.1c-.6 0-1-.1-1.3-.3-.3-.2-.5-.4-.6-.7-.1-.2-.1-.5 0-.7.1-.2.3-.4.5-.6.2-.2.5-.3.8-.4.3-.1.5-.1.8-.1.3 0 .6.1.8.2l-.3.7c-.2-.1-.4-.1-.6-.2h-.7c-.3.1-.5.2-.6.3-.1.1-.1.3-.1.4 0 .1.1.2.2.3.1.1.2.1.4.1s.4 0 .7.1c.4 0 .8.1 1 .2.3.1.5.2.6.4s.2.3.3.6c.1.2.1.5 0 .7-.1.2-.3.5-.5.6-.3.2-.6.3-.9.4-.3.1-.7.1-1 .1-.2.1-.5 0-.7-.1zm4.6-3.1c-.1-.5-.2-1-.1-1.4.1-.4.3-.7.5-1 .3-.3.6-.5 1-.6.4-.1.8-.1 1.1 0 .4.1.7.3.9.6.3.3.5.7.6 1.2.1.5.2 1 .1 1.4-.1.4-.3.7-.5 1-.3.3-.6.5-1 .6-.4.1-.8.1-1.1 0-.4-.1-.7-.3-.9-.6-.2-.3-.4-.7-.6-1.2zm.9-.3c.1.4.2.6.4.9.2.2.4.4.6.5.2.1.5.1.7 0 .3-.1.5-.2.6-.4.2-.2.2-.4.3-.7 0-.3 0-.6-.1-1s-.2-.6-.4-.9c-.1-.2-.3-.4-.6-.5-.2-.1-.5-.1-.7 0-.2.1-.4.2-.6.4-.2.2-.2.4-.3.7-.1.4 0 .7.1 1zm4.1-2.8-.2-.7 3-.8.2.7-3 .8zm1.9 3.7-1.3-5c-.1-.3-.1-.6 0-.9.1-.3.2-.5.4-.7.2-.2.4-.3.7-.4.3-.1.7-.1 1-.1v.7h-.7c-.2.1-.4.2-.5.4-.1.2-.1.4 0 .7l1.3 4.9-.9.4zm2-4.7-.2-.7 3-.8.2.7-3 .8zm1.4 2.3L41 14.1l.8-.4 1.2 4.4c.1.2.2.4.3.5.1.1.3.1.6 0 .1 0 .2-.1.3-.1.1-.1.2-.1.3-.2l.3.7c-.1.1-.3.2-.4.3-.2.1-.3.1-.5.2s-.5.1-.7 0c-.2-.1-.5-.2-.6-.4-.2-.1-.4-.4-.5-.7zm2.4-4.1.9-.2 2.1 3.5.2.8-.5.1c.1 0-2.7-4.2-2.7-4.2zm2.8 3.3.2-4.1.5-.1.3.9-.2 4-.4.1c-.2 0-.4-.8-.4-.8zm.6-3.2-.3-.9.5-.1 2.2 3.4.2.8-.5.1-2.1-3.3zm2.2 2.4.1-4.1.8-.2-.3 5-.4.1c0 .1-.2-.8-.2-.8zm3.1-1.2c-.1-.3-.1-.5 0-.8.1-.3.3-.5.6-.8.3-.2.7-.4 1.3-.6l.6-.2.2.6-.5.2c-.4.1-.7.3-.8.4-.2.1-.3.3-.3.4 0 .1-.1.3 0 .4 0 .2.1.3.3.4.1.1.3.1.5 0 .3-.1.5-.2.7-.4.2-.2.4-.4.5-.7l.2.6c-.1.3-.3.5-.5.8-.2.2-.5.4-.9.5-.2.1-.4.1-.7 0-.7.1-1.1-.3-1.2-.8zm-.7-3c.2-.2.4-.4.7-.5.3-.2.6-.3.8-.4.3-.1.7-.1 1 0 .3.1.6.2.8.4.2.2.4.5.5.9l.5 1.8c0 .1.1.2.1.3 0 .1.1.2.1.3l.2.4-.8.2-.4-.8-.5-1.9c-.1-.4-.3-.6-.5-.8-.2-.1-.5-.1-.8-.1l-.6.3c-.2.1-.4.3-.5.4-.1.1-.6-.5-.6-.5zm5.4-1.9.8-.2.4.8 1 3.7-.8.2-.9-3.5c0-.1-.1-.2-.1-.3 0-.1-.1-.2-.1-.3l-.3-.4zm1.2 1.3-.2-.6c.1-.3.2-.6.5-.9.2-.3.5-.4.9-.5l.2.9c-.4.1-.7.3-.9.5-.2.1-.4.4-.5.6zm3.2.1c-.1-.5-.2-1-.1-1.4.1-.4.3-.8.5-1 .3-.3.6-.5 1-.6.4-.1.7-.1 1 0 .3.1.6.3.9.6.3.3.5.7.6 1.2v.4l-3.2.8-.2-.7 2.6-.7-.1.4c-.2-.6-.4-.9-.7-1.1-.3-.2-.6-.2-.9-.2-.2.1-.4.2-.6.4-.1.2-.2.4-.3.7 0 .3 0 .6.1 1s.2.6.4.8c.2.2.4.3.7.4.2.1.5.1.8 0 .2-.1.4-.1.6-.3.2-.1.3-.3.4-.4l.6.5-.6.6c-.2.1-.5.2-.8.3-.4.1-.8.1-1.2.1-.4-.1-.7-.3-1-.6-.2-.3-.4-.7-.5-1.2zm5.9.3V12l.3-.3c.1 0 .3 0 .4.1.1.1.2.2.3.4v.4l-.3.3c-.3 0-.6-.2-.7-.5zm6.1-1.1-1.7-6.2.9-.2 1.6 6.2-.8.2zM.9 39.7.7 39l3-.8.2.7-3 .8zM2.4 42l-1.2-4.3.8-.4 1.2 4.4c.1.2.2.4.3.5.1.1.3.1.6 0 .1 0 .2-.1.3-.1.1-.1.2-.1.3-.2l.3.8c-.1.1-.3.2-.4.3-.1.1-.3.1-.5.2s-.5.1-.7 0c-.2-.1-.5-.2-.6-.4-.2-.2-.4-.4-.4-.8zm3.7-.8c-.1-.2-.1-.5 0-.8.1-.3.3-.5.6-.8.3-.2.7-.4 1.3-.6l.6-.2.2.6-.5.2c-.4.1-.7.3-.8.4-.2.1-.3.3-.3.4 0 .1-.1.3 0 .4 0 .2.1.3.3.4.1.1.3.1.5 0 .3-.1.5-.2.7-.4.2-.2.4-.4.5-.7l.2.6c-.1.3-.3.5-.5.8-.2.2-.5.4-.9.5-.2.1-.4.1-.7 0-.7.1-1.1-.3-1.2-.8zm-.7-3c.2-.2.4-.4.7-.5.3-.2.6-.3.8-.4.3-.1.7-.1 1 0 .3.1.6.2.8.4.2.2.4.5.5.9l.5 1.8c0 .1.1.2.1.3 0 .1.1.2.1.3l.2.4-.8.2-.4-.8-.5-1.9c-.1-.4-.3-.6-.5-.8-.2-.1-.5-.1-.9 0l-.6.3c-.2.1-.4.3-.5.4l-.5-.6zm6.3 2.3v-.4c.1-.1.2-.2.4-.3.1 0 .3 0 .4.1.1.1.2.2.3.4v.4c-.1.1-.2.2-.4.3-.3 0-.6-.2-.7-.5zm5.8-1.1-.2-.7L20 38l.2.7-2.7.7zM16.1 34l-.2-.7 2.6-.7.2.7-2.6.7zm2.3 5.2L16.8 33l.9-.2 1.6 6.2-.9.2zm2.9-3.2c-.1-.5-.2-1-.1-1.4.1-.4.2-.7.4-1 .2-.3.5-.5.9-.6.3-.1.5-.1.8 0 .3.1.5.2.8.5.2.3.4.6.6 1.1l-.3.2c-.1-.3-.2-.6-.4-.8-.1-.2-.3-.3-.5-.4-.2-.1-.4-.1-.6 0-.4.1-.6.3-.7.7-.1.4-.1.8 0 1.3.1.3.2.6.4.8.2.2.3.4.5.4.2.1.4.1.6 0 .2-.1.5-.2.6-.4.2-.2.3-.4.5-.7l.2.6c-.1.3-.3.6-.5.8-.2.2-.5.4-.8.5-.3.1-.6.1-.9 0-.3-.1-.6-.3-.8-.6-.4-.1-.6-.5-.7-1zm3.9 1.4-.4-.8-1.5-5.6.8-.4 1.5 5.5c0 .1.1.2.1.3 0 .1.1.2.1.3l.2.4c0 .1-.8.3-.8.3zm5.2-2 .3-.7c.2.1.4.2.7.2.2 0 .5 0 .8-.1.3-.1.5-.2.6-.3.1-.1.2-.3.1-.5 0-.1-.1-.2-.2-.3-.1-.1-.2-.1-.4-.2s-.5-.1-.7-.1c-.6 0-1-.1-1.3-.3-.3-.2-.5-.4-.6-.7-.1-.2-.1-.5 0-.7.1-.2.3-.4.5-.6.2-.2.5-.3.8-.4.3-.1.5-.1.8-.1.3 0 .6.1.8.2l-.3.7c-.2-.1-.4-.1-.6-.2H31c-.3.1-.5.2-.6.3-.1.1-.1.3-.1.4 0 .1.1.2.2.3.1.1.2.1.4.1s.4 0 .7.1c.4 0 .8.1 1 .2.3.1.5.2.6.4.1.2.2.3.3.6.1.2.1.5 0 .7-.1.2-.3.5-.5.6-.3.2-.6.3-.9.4-.3.1-.7.1-1 .1-.1.1-.4 0-.7-.1zm4.7-3.1c-.1-.5-.2-1-.1-1.4.1-.4.3-.7.5-1 .3-.3.6-.5 1-.6s.8-.1 1.1 0c.4.1.7.3.9.6.3.3.5.7.6 1.2.1.5.2 1 .1 1.4-.1.4-.3.7-.5 1-.3.3-.6.5-1 .6-.4.1-.8.1-1.1 0-.4-.1-.7-.3-.9-.6-.3-.3-.5-.7-.6-1.2zm.8-.3c.1.4.2.6.4.9.2.2.4.4.6.5.2.1.5.1.7 0 .3-.1.5-.2.6-.4.2-.2.2-.4.3-.7 0-.3 0-.6-.1-1s-.2-.6-.4-.9c-.1-.2-.3-.4-.6-.5-.2-.1-.5-.1-.7 0-.2.1-.4.2-.6.4-.2.2-.2.4-.3.7 0 .4 0 .7.1 1zm4.2-2.8-.2-.7 3-.8.2.7c-.1 0-3 .8-3 .8zm1.8 3.7-1.3-5c-.1-.3-.1-.6 0-.9.1-.3.2-.5.4-.7.2-.2.4-.3.7-.4.3-.1.7-.1 1-.1v.7h-.8c-.2.1-.4.2-.5.4-.1.2-.1.4 0 .7l1.3 4.9-.8.4zm2-4.7-.2-.7 3-.8.2.7-3 .8zm1.5 2.3-1.2-4.3.8-.4 1.2 4.4c.1.2.2.4.3.5.1.1.3.1.6 0 .1 0 .2-.1.3-.1.1-.1.2-.1.3-.2l.3.7c-.1.1-.3.2-.4.3-.1.1-.3.1-.5.2s-.5.1-.7 0c-.2-.1-.5-.2-.6-.4-.2-.1-.3-.4-.4-.7zm2.4-4.1.9-.2 2.1 3.5.2.8-.5.1-2.7-4.2zm2.7 3.3.2-4.1.5-.1.3.9-.2 4-.4.1c-.1 0-.4-.8-.4-.8zm.6-3.2-.3-.9.5-.1 2.2 3.4.2.8-.5.1-2.1-3.3zm2.2 2.4.1-4.1.8-.2-.3 5-.4.1c.1.1-.2-.8-.2-.8zm3.1-1.2c-.1-.3-.1-.5 0-.8.1-.3.3-.5.6-.8.3-.2.7-.4 1.3-.6l.6-.2.1.7-.5.2c-.4.1-.7.3-.8.4s-.3.3-.3.4c0 .1-.1.3 0 .4 0 .2.1.3.3.4.1.1.3.1.5 0 .3-.1.5-.2.7-.4.2-.2.4-.4.5-.7l.2.6c-.1.3-.3.5-.5.8-.2.2-.5.4-.9.5-.2.1-.4.1-.7 0-.6 0-1-.4-1.1-.9zm-.6-3c.2-.2.4-.4.7-.5.3-.2.6-.3.8-.4.3-.1.7-.1 1 0 .3.1.6.2.8.4.2.2.4.5.5.9l.5 1.8c0 .1.1.2.1.3 0 .1.1.2.1.3l.2.4-.8.2-.4-.8-.5-1.9c-.1-.4-.3-.6-.5-.8-.2-.1-.5-.1-.8-.1l-.6.3c-.2.1-.4.3-.5.4-.2.1-.6-.5-.6-.5zm5.3-1.9.8-.2.4.8 1 3.7-.8.2-.9-3.5c0-.1-.1-.2-.1-.3 0-.1-.1-.2-.1-.3-.1 0-.3-.4-.3-.4zm1.3 1.3-.2-.6c.1-.3.2-.6.5-.9.2-.3.5-.4.9-.5l.2.9c-.4.1-.7.3-.9.5-.3.1-.4.4-.5.6zm3.1.1c-.1-.5-.2-1-.1-1.4.1-.4.3-.7.5-1 .3-.3.6-.5 1-.6.4-.1.7-.1 1 0 .3.1.6.3.9.6.3.3.5.7.6 1.2v.4l-3.2.9-.2-.7 2.6-.7-.1.4c-.2-.6-.4-.9-.7-1.1-.3-.2-.6-.2-.9-.2-.2.1-.4.2-.6.4-.1.2-.2.4-.3.7 0 .3 0 .6.1 1s.2.6.4.8c.2.2.4.3.7.4.2.1.5.1.8 0 .2-.1.4-.1.6-.3.2-.1.3-.2.4-.4l.6.5c-.2.2-.4.4-.6.5-.2.1-.5.2-.8.3-.2.1-.7.1-1.1.1-.4-.1-.7-.3-1-.6-.2-.3-.5-.7-.6-1.2zm6 .3v-.4l.3-.3c.1 0 .3 0 .4.1.1.1.2.2.3.4v.4l-.3.3c-.3 0-.6-.2-.7-.5zM4.1 51.8l-.2-.7 3-.8.2.7-3 .8zm10.8.8v-.4c.1-.1.2-.2.4-.3.1 0 .3 0 .4.1.1.1.2.2.3.4v.4c-.1.1-.2.2-.4.3-.3 0-.6-.2-.7-.5zm5.9-1.1-.2-.7 2.6-.7.2.7-2.6.7zm-1.5-5.4-.2-.7 2.6-.7.2.7-2.6.7zm2.3 5.2L20 45.1l.9-.2 1.6 6.2-.9.2zm2.9-3.2c-.1-.5-.2-1-.1-1.4.1-.4.2-.7.4-1 .2-.3.5-.5.9-.6.3-.1.5-.1.8 0 .3.1.5.2.8.5s.4.6.6 1.1l-.3.3c-.1-.3-.2-.6-.4-.8-.1-.2-.3-.3-.5-.4-.2-.1-.4-.1-.6 0-.4.1-.6.3-.7.7-.1.4-.1.8 0 1.3.1.3.2.6.4.8.2.2.3.4.5.4.2.1.4.1.6 0 .2-.1.5-.2.6-.4.2-.2.3-.4.5-.7l.2.6c-.1.3-.3.6-.5.8-.2.2-.5.4-.8.5-.3.1-.6.1-.9 0-.3-.1-.6-.3-.8-.6-.3-.2-.5-.6-.7-1.1zm3.9 1.4-.4-.9-1.5-5.5.8-.4 1.5 5.5c0 .1.1.2.1.3 0 .1.1.2.1.3l.2.4c0 .1-.8.3-.8.3zm5.3-2 .3-.7c.2.1.4.2.7.2.2 0 .5 0 .8-.1.3-.1.5-.2.6-.3.1-.1.2-.3.1-.5 0-.1-.1-.2-.2-.3-.1-.1-.2-.1-.4-.2s-.5-.1-.7-.1c-.6 0-1-.1-1.3-.3-.3-.2-.5-.4-.6-.7-.1-.2-.1-.5 0-.7.1-.2.3-.4.5-.6.2-.2.5-.3.8-.4.3-.1.5-.1.8-.1.3 0 .6.1.8.2l-.3.7c-.2-.1-.4-.1-.6-.2h-.7c-.3.1-.5.2-.6.3-.1.1-.1.3-.1.4 0 .1.1.2.2.3.1.1.2.1.4.1s.4 0 .7.1c.4 0 .8.1 1 .2.3.1.5.2.6.4.1.2.2.3.3.6.1.2.1.5 0 .7-.1.2-.3.5-.5.6-.3.2-.6.3-.9.4-.3.1-.7.1-1 .1-.2.1-.5 0-.7-.1zm4.6-3.1c-.1-.5-.2-1-.1-1.4.1-.4.3-.7.5-1s.6-.5 1-.6c.4-.1.8-.1 1.1 0 .4.1.7.3.9.6.3.3.5.7.6 1.2.1.5.2 1 .1 1.4-.1.4-.3.7-.5 1-.3.3-.6.5-1 .6-.4.1-.8.1-1.1 0-.4-.1-.7-.3-.9-.6-.2-.3-.4-.7-.6-1.2zm.9-.2c.1.4.2.6.4.9.2.2.4.4.6.5.2.1.5.1.7 0 .3-.1.5-.2.6-.4.2-.2.2-.4.3-.7 0-.3 0-.6-.1-1s-.2-.6-.4-.9c-.1-.2-.3-.4-.6-.5-.2-.1-.5-.1-.7 0-.2.1-.4.2-.6.4-.2.2-.2.4-.3.7-.1.3 0 .6.1 1zm4.1-2.9-.2-.7 3-.8.2.7-3 .8zm1.9 3.7-1.3-5c-.1-.3-.1-.6 0-.9.1-.3.2-.5.4-.7.2-.2.4-.3.7-.4.3-.1.7-.1 1-.1v.7h-.7c-.2.1-.4.2-.5.4-.1.2-.1.4 0 .7l1.3 4.9-.9.4zm2-4.7-.2-.7 3-.8.2.7-3 .8zm1.4 2.3-1.2-4.3.8-.4 1.2 4.4c.1.2.2.4.3.5.1.1.3.1.6 0 .1 0 .2-.1.3-.1.1-.1.2-.1.3-.2l.3.7c-.1.1-.3.2-.4.3-.2.1-.3.1-.5.2s-.5.1-.7 0c-.2-.1-.5-.2-.6-.4-.1-.1-.3-.4-.4-.7zm2.4-4.1.9-.2 2.1 3.5.2.8-.5.1c.1 0-2.7-4.2-2.7-4.2zm2.8 3.3.2-4.1.5-.1.3.9-.2 4-.6.1-.2-.8zm.6-3.2-.3-.9.5-.1 2.2 3.4.2.8-.5.1-2.1-3.3zm2.2 2.4.1-4.1.8-.2-.3 5-.4.1c0 .1-.2-.8-.2-.8zm3.1-1.2c-.1-.3-.1-.5 0-.8.1-.3.3-.5.6-.8.3-.2.7-.4 1.3-.6l.6-.2.2.6-.5.2c-.4.1-.7.3-.8.4-.2.1-.3.3-.3.4 0 .1-.1.3 0 .4 0 .2.1.3.3.4.1.1.3.1.5 0 .3-.1.5-.2.7-.4.2-.2.4-.4.5-.7l.2.6c-.1.3-.3.5-.5.8-.2.2-.5.4-.9.5-.2.1-.4.1-.7 0-.7.1-1.1-.3-1.2-.8zm-.7-3c.2-.2.4-.4.7-.5.3-.2.6-.3.8-.4.3-.1.7-.1 1 0 .3.1.6.2.8.4.2.2.4.5.5.9l.5 1.8c0 .1.1.2.1.3 0 .1.1.2.1.3l.2.4-.8.2-.4-.8-.5-1.9c-.1-.4-.3-.6-.5-.8-.2-.1-.5-.1-.8-.1l-.6.3c-.2.1-.4.3-.5.4l-.6-.5zm5.4-1.9.8-.2.4.8 1 3.7-.8.2-1-3.4c0-.1-.1-.2-.1-.3 0-.1-.1-.2-.1-.3-.1-.1-.2-.5-.2-.5zm1.2 1.3-.2-.6c.1-.3.2-.6.5-.9.2-.3.5-.4.9-.5l.2.9c-.4.1-.7.3-.9.5-.2.1-.4.4-.5.6zm3.1.1c-.1-.5-.2-1-.1-1.4.1-.4.3-.7.5-1 .3-.3.6-.5 1-.6.4-.1.7-.1 1 0 .3.1.6.3.9.6.3.3.5.7.6 1.2v.4l-3.2.9-.2-.7 2.6-.7-.1.4c-.2-.6-.4-.9-.7-1.1-.3-.2-.6-.2-.9-.2-.2.1-.4.2-.6.4-.1.2-.2.4-.3.7 0 .3 0 .6.1 1s.2.6.4.8c.2.2.4.3.7.4.2.1.5.1.8 0 .2-.1.4-.1.6-.3.2-.1.3-.2.4-.4l.6.5c-.2.2-.4.4-.6.5-.2.1-.5.2-.8.3-.4.1-.8.1-1.2 0-.4-.1-.7-.3-1-.6-.1-.2-.3-.6-.5-1.1zm6 .3v-.4l.3-.3c.1 0 .3 0 .4.1.1.1.2.2.3.4v.4l-.3.3c-.3 0-.6-.2-.7-.5zM41.6 56.5c-.1-.5-.2-1-.1-1.4.1-.4.3-.7.5-1 .3-.3.6-.5 1-.6.4-.1.8-.1 1.1 0 .4.1.7.3.9.6.3.3.5.7.6 1.2.1.5.2 1 .1 1.4-.1.4-.3.7-.5 1-.3.3-.6.5-1 .6-.4.1-.8.1-1.1 0-.4-.1-.7-.3-1-.6-.2-.3-.4-.7-.5-1.2zm.8-.2c.1.4.2.6.4.9.2.2.4.4.6.5.2.1.5.1.7 0 .3-.1.5-.2.6-.4.2-.2.2-.4.3-.7 0-.3 0-.6-.1-1s-.2-.6-.4-.9c-.1-.2-.3-.4-.6-.5-.2-.1-.5-.1-.7 0-.2.1-.5.2-.6.4-.2.2-.2.4-.3.7 0 .3 0 .6.1 1zm4.2-2.9-.2-.7 3-.8.2.7c-.1 0-3 .8-3 .8zm1.8 3.7-1.3-5c-.1-.3-.1-.6 0-.9.1-.3.2-.5.4-.7.2-.2.4-.3.7-.4.3-.1.7-.1 1-.1v.7h-.8c-.2.1-.4.2-.5.4-.1.2-.1.4 0 .7l1.3 4.9-.8.4zm2-4.7-.2-.7 3-.8.2.7-3 .8zm1.5 2.3-1.2-4.3.8-.4 1.2 4.4c.1.2.2.4.3.5.1.1.3.1.6 0 .1 0 .2-.1.3-.1.1-.1.2-.1.3-.2l.3.7c-.1.1-.3.2-.4.3-.2.1-.3.1-.5.2s-.5.1-.7 0c-.2-.1-.5-.2-.6-.4-.2-.1-.3-.4-.4-.7zm2.4-4.1.9-.2 2.1 3.5.2.8-.5.1-2.7-4.2zm8.6 1.4c-.1-.3-.1-.5 0-.8.1-.3.3-.5.6-.8.3-.2.7-.4 1.3-.6l.6-.2.2.6-.5.2c-.4.1-.7.3-.8.4-.2.1-.3.3-.3.4 0 .1-.1.3 0 .4 0 .2.1.3.3.4.1.1.3.1.5 0 .3-.1.5-.2.7-.4.2-.2.4-.4.5-.7l.2.6c-.1.3-.3.5-.5.8-.2.2-.5.4-.9.5-.2.1-.4.1-.7 0-.7 0-1.1-.4-1.2-.8zm-.7-3.1c.2-.2.4-.4.7-.5.3-.2.6-.3.8-.4.3-.1.7-.1 1 0 .3.1.6.2.8.4.2.2.4.5.5.9l.5 1.8c0 .1.1.2.1.3 0 .1.1.2.1.3l.2.4-.8.2-.4-.8-.5-1.9c-.1-.4-.3-.6-.5-.8-.2-.1-.5-.1-.8-.1l-.6.3c-.2.1-.4.3-.5.4l-.6-.5zm5.4-1.9.8-.2.4.8 1 3.7-.8.3-1-3.5c0-.1-.1-.2-.1-.3 0-.1-.1-.2-.1-.3 0-.1-.2-.5-.2-.5zm1.2 1.3-.2-.6c.1-.3.2-.6.5-.9.2-.3.5-.4.9-.5l.2.9c-.4.1-.7.3-.9.5-.2.1-.4.4-.5.6zm3.2.1c-.1-.5-.2-1-.1-1.4.1-.4.3-.8.5-1 .3-.3.6-.5 1-.6.4-.1.7-.1 1 0 .3.1.6.3.9.6.3.3.5.7.6 1.2v.4l-3.2.9-.2-.7 2.6-.7-.1.4c-.2-.6-.4-.9-.7-1.1-.3-.2-.6-.2-.9-.2-.2.1-.4.2-.6.4-.1.2-.2.4-.3.7 0 .3 0 .6.1 1s.2.6.4.8c.2.2.4.3.7.4.2.1.5.1.8 0 .2-.1.4-.1.6-.3.2-.1.3-.2.4-.4l.6.5c-.2.2-.4.4-.6.5-.2.1-.5.2-.8.3-.4.1-.8.1-1.2 0-.4-.1-.7-.3-1-.6-.2-.2-.4-.6-.5-1.1zM49.8 65.5l-.2-.7 3-.8.2.7-3 .8zm1.8 3.7-1.3-5c-.1-.3-.1-.6 0-.9.1-.3.2-.5.4-.7.2-.2.4-.3.7-.4.3-.1.7-.1 1-.1v.7h-.7c-.2.1-.4.2-.5.4-.1.2-.1.4 0 .7l1.3 4.9-.9.4zm2-4.7-.2-.7 3-.8.2.7-3 .8z" class="st3"/></g></svg>