<svg xmlns="http://www.w3.org/2000/svg" width="76" height="66" fill="none" viewBox="0 0 76 66"><path fill="#EF6CF6" fill-rule="evenodd" d="M1.67 6.623C.325 9.218.325 12.615.325 19.408v42.335c0 2.67 3.225 4.01 5.117 2.126l10.534-10.492c1.601-1.793 4.02-2.935 6.727-2.935l.152.001v-.001h29.682v.019c2.382.15 4.502 1.188 5.98 2.759h.023l12.252 11.604c1.912 1.81 5.063.455 5.063-2.179V38.554c.135-1.949.135-4.37.135-7.52V19.408c0-6.794 0-10.19-1.346-12.786a12.242 12.242 0 0 0-5.396-5.3C66.607 0 63.15 0 56.235 0H20.079C13.165 0 9.707 0 7.066 1.322A12.24 12.24 0 0 0 1.67 6.623Z" clip-rule="evenodd"/><path fill="#FFFDEF" fill-rule="evenodd" d="M57.939 19.606a3.139 3.139 0 1 0-4.44-4.439 3.139 3.139 0 0 0 4.44 4.44Zm-.381 17.626a3.139 3.139 0 1 0-4.44-4.44 3.139 3.139 0 0 0 4.44 4.44Zm-8.622-8.623a3.139 3.139 0 1 1-4.439-4.439 3.139 3.139 0 0 1 4.439 4.44Zm13.186-.38a3.139 3.139 0 1 0 4.44-4.44 3.139 3.139 0 0 0-4.44 4.44ZM18.456 15.7a2 2 0 0 0-2 2v5.17h-5.36a2 2 0 0 0-2 2v2.278a2 2 0 0 0 2 2h5.36v5.55a2 2 0 0 0 2 2h2.278a2 2 0 0 0 2-2v-5.55h5.36a2 2 0 0 0 2-2V24.87a2 2 0 0 0-2-2h-5.36V17.7a2 2 0 0 0-2-2h-2.278Z" clip-rule="evenodd"/></svg>