<svg xmlns="http://www.w3.org/2000/svg" width="74" height="76" fill="none" viewBox="0 0 74 76"><path fill="#FFFDEF" d="M73.206 60.395c0 6.6 0 9.9-2.05 11.95-2.05 2.05-5.35 2.05-11.95 2.05H14.689c-6.6 0-9.9 0-11.95-2.05-2.05-2.05-2.05-5.35-2.05-11.95v-1.906c0-6.6 0-9.9 2.05-11.95 2.05-2.05 5.35-2.05 11.95-2.05h44.517c6.6 0 9.9 0 11.95 2.05 2.05 2.05 2.05 5.35 2.05 11.95v1.906Z"/><path fill="#EF6CF6" d="m34.975 44.052 16.102 17.262 2.622-2.554 17.977-10.101-8.265 25.878-12.334-13.223L37.452 74.59c-.488.718-7.037-5.829-14.095-12.924l-8.555 12.97-9.384-29.401c.952-.695 9.785 8.234 17.94 16.431l11.617-17.614Z"/><ellipse cx="14.534" cy="12.434" fill="#FFFDEF" rx="14.534" ry="12.434" transform="scale(-1 1) rotate(.442 -1481.802 -3898.443)"/><ellipse cx="14.534" cy="12.434" fill="#FFFDEF" rx="14.534" ry="12.434" transform="scale(-1 1) rotate(.442 -1502.568 -9283.604)"/><ellipse cx="7.971" cy="6.82" fill="#07021A" rx="7.971" ry="6.82" transform="scale(-1 1) rotate(.442 -2420.107 -3326.465)"/><ellipse cx="7.971" cy="6.82" fill="#07021A" rx="7.971" ry="6.82" transform="scale(-1 1) rotate(.442 -2441.275 -8815.68)"/><ellipse cx="1.754" cy="1.501" fill="#FFFDEF" rx="1.754" ry="1.501" transform="scale(-1 1) rotate(.442 -2769.425 -2247.317)"/><ellipse cx="1.754" cy="1.501" fill="#FFFDEF" rx="1.754" ry="1.501" transform="scale(-1 1) rotate(.442 -2794.2 -7784.534)"/><path fill="#EF6CF6" d="M36.648 8.095 64.713.575l2.877 10.737-28.065 7.52zM3.919.31l28.065 7.52-2.877 10.736-28.065-7.52z"/></svg>