<svg xmlns="http://www.w3.org/2000/svg" width="78" height="88" fill="none" viewBox="0 0 78 88"><path fill="#EAEADE" fill-rule="evenodd" d="M41.457 48.041a1.68 1.68 0 0 1-2.162-.983L24.893 8.64a1.68 1.68 0 0 1 3.147-1.18l14.4 38.42a1.68 1.68 0 0 1-.983 2.161Z" clip-rule="evenodd"/><path fill="#EAEADE" fill-rule="evenodd" d="M28.436 45.888a1.472 1.472 0 0 1-.214-2.07l26.124-32.175a1.472 1.472 0 0 1 2.285 1.855L30.507 45.673a1.472 1.472 0 0 1-2.07.215Z" clip-rule="evenodd"/><circle cx="25.792" cy="7.067" r="5.459" fill="#D9D9D9" transform="rotate(9.075 25.792 7.067)"/><circle cx="55.047" cy="11.74" r="5.459" fill="#D9D9D9" transform="rotate(9.075 55.047 11.74)"/><path fill="#EF6CF6" d="M.325 52.935c0-7.484 0-11.226 1.366-14.084 1.203-2.514 3.121-4.559 5.48-5.84 2.683-1.456 6.194-1.456 13.217-1.456h36.72c7.023 0 10.535 0 13.217 1.456 2.36 1.281 4.278 3.325 5.48 5.84 1.367 2.858 1.367 6.6 1.367 14.084V65.74c0 7.484 0 11.225-1.367 14.084-1.202 2.514-3.12 4.558-5.48 5.84-2.682 1.456-6.194 1.456-13.217 1.456h-36.72c-7.023 0-10.534 0-13.217-1.456-2.359-1.282-4.277-3.326-5.48-5.84C.325 76.966.325 73.225.325 65.74V52.935Z"/><path fill="#FFFDEF" d="M43.52 53.154c3.107 2.56 4.66 3.84 5.095 5.42a5.112 5.112 0 0 1 0 2.709c-.434 1.581-1.988 2.861-5.096 5.42-5.197 4.281-7.796 6.422-10.008 6.217a5.356 5.356 0 0 1-3.23-1.476C28.7 69.914 28.7 66.585 28.7 59.929c0-6.657 0-9.985 1.582-11.515a5.356 5.356 0 0 1 3.23-1.477c2.212-.204 4.81 1.936 10.008 6.217Z"/></svg>