<svg width="72" height="72" viewBox="0 0 72 72" fill="none" xmlns="http://www.w3.org/2000/svg">
<path d="M0 14.4C0 6.4471 6.4471 0 14.4 0H57.6C65.5529 0 72 6.4471 72 14.4V57.6C72 65.5529 65.5529 72 57.6 72H14.4C6.4471 72 0 65.5529 0 57.6V14.4Z" fill="#8CFF31"/>
<path d="M37.962 49.8102L49.1992 49.2572V56.958C49.1992 58.7597 47.1125 59.6497 45.9142 58.3592L37.962 49.8102Z" fill="#07021A"/>
<path d="M12.8 29.6513C12.8 25.1529 12.8 22.9038 13.6345 21.1856C14.3685 19.6743 15.5398 18.4455 16.9804 17.6755C18.6181 16.8 20.762 16.8 25.0498 16.8H47.4695C51.7574 16.8 53.9013 16.8 55.539 17.6755C56.9796 18.4455 58.1508 19.6743 58.8849 21.1856C59.7193 22.9038 59.7193 25.1529 59.7193 29.6513V37.3486C59.7193 41.847 59.7193 44.0962 58.8849 45.8143C58.1508 47.3256 56.9796 48.5544 55.539 49.3244C53.9013 50.1999 51.7574 50.1999 47.4695 50.1999H25.0498C20.762 50.1999 18.6181 50.1999 16.9804 49.3244C15.5398 48.5544 14.3685 47.3256 13.6345 45.8143C12.8 44.0962 12.8 41.847 12.8 37.3486V29.6513Z" fill="#07021A"/>
<path d="M20.2918 35.5776C19.8367 31.7285 19.6092 29.8039 20.3112 28.3003C20.6369 27.6025 21.0971 26.9831 21.6625 26.4812C22.8808 25.3998 24.7153 25.1611 28.3842 24.6837L41.7669 22.9424C45.4636 22.4614 47.3119 22.221 48.7509 22.9661C49.4187 23.3118 50.0104 23.7998 50.4883 24.3987C51.5185 25.6897 51.7324 27.6307 52.1602 31.5127V31.5127C52.5816 35.3367 52.7923 37.2488 52.0868 38.7401C51.7593 39.4324 51.2992 40.0465 50.7353 40.5439C49.5207 41.6154 47.7 41.8523 44.0585 42.3261L30.6758 44.0674C27.0068 44.5448 25.1723 44.7835 23.7391 44.047C23.074 43.7053 22.4835 43.2225 22.0051 42.6293C20.9743 41.3512 20.7468 39.4267 20.2918 35.5776V35.5776Z" fill="#FFFDEF"/>
</svg>
