<svg xmlns="http://www.w3.org/2000/svg" width="72" height="72" fill="none" viewBox="0 0 72 72"><path fill="#8CFF31" d="M0 14.4C0 6.447 6.447 0 14.4 0h43.2C65.553 0 72 6.447 72 14.4v43.2C72 65.553 65.553 72 57.6 72H14.4C6.447 72 0 65.553 0 57.6V14.4Z"/><path fill="#07021A" d="m37.962 49.81 11.237-.553v7.701c0 1.802-2.087 2.692-3.285 1.401l-7.952-8.549Z"/><path fill="#07021A" d="M12.8 29.651c0-4.498 0-6.747.834-8.465a7.854 7.854 0 0 1 3.346-3.51c1.638-.876 3.782-.876 8.07-.876h22.42c4.287 0 6.431 0 8.069.875a7.855 7.855 0 0 1 3.346 3.51c.834 1.719.834 3.968.834 8.466v7.698c0 4.498 0 6.747-.834 8.465a7.855 7.855 0 0 1-3.346 3.51c-1.638.876-3.782.876-8.07.876H25.05c-4.287 0-6.43 0-8.069-.876a7.854 7.854 0 0 1-3.346-3.51c-.834-1.718-.834-3.967-.834-8.465V29.65Z"/><path fill="#FFFDEF" d="M20.292 35.578c-.455-3.85-.683-5.774.02-7.278a5.593 5.593 0 0 1 1.35-1.819c1.219-1.081 3.053-1.32 6.722-1.797l13.383-1.742c3.697-.48 5.545-.721 6.984.024.668.346 1.26.834 1.737 1.433 1.03 1.29 1.244 3.232 1.672 7.114.422 3.824.632 5.736-.073 7.227a5.59 5.59 0 0 1-1.352 1.804c-1.214 1.071-3.035 1.308-6.676 1.782l-13.383 1.741c-3.67.478-5.504.716-6.937-.02a5.403 5.403 0 0 1-1.734-1.418c-1.03-1.278-1.258-3.202-1.713-7.051Z"/></svg>