<svg xmlns="http://www.w3.org/2000/svg" width="204" height="72" fill="none" viewBox="0 0 204 72"><path fill="#FFFDEF" d="M0 14.29C0 6.398 6.488 0 14.492 0h175.016C197.512 0 204 6.398 204 14.29v43.42c0 7.892-6.488 14.29-14.492 14.29H14.492C6.488 72 0 65.602 0 57.71V14.29Z"/><path fill="#07021A" d="M20.8 24.304c0-4.144 3.157-7.504 7.052-7.504 3.895 0 7.052 3.36 7.052 7.504v18.574c0 4.145-3.157 7.504-7.052 7.504-3.895 0-7.052-3.36-7.052-7.504V24.304ZM60.76 24.844c3.699 3.304 5.548 4.957 6.064 6.999a7.141 7.141 0 0 1 0 3.497c-.516 2.041-2.365 3.694-6.064 6.998-6.185 5.527-9.278 8.29-11.91 8.027-1.45-.146-2.808-.819-3.845-1.907-1.883-1.975-1.883-6.272-1.883-14.867s0-12.892 1.883-14.867c1.037-1.088 2.395-1.761 3.844-1.907 2.633-.264 5.726 2.5 11.911 8.027ZM92.27 24.844c3.698 3.304 5.547 4.957 6.063 6.999a7.141 7.141 0 0 1 0 3.497c-.516 2.041-2.365 3.694-6.064 6.998-6.185 5.527-9.278 8.29-11.91 8.027-1.45-.146-2.808-.819-3.844-1.907-1.883-1.975-1.883-6.272-1.883-14.867s0-12.892 1.883-14.867c1.036-1.088 2.394-1.761 3.843-1.907 2.633-.264 5.726 2.5 11.911 8.027ZM131.084 49.99l11.139-.556v7.743c0 1.812-2.068 2.706-3.256 1.409l-7.883-8.596Z"/><path fill="#07021A" d="M106.14 29.721c0-4.523 0-6.784.828-8.512.727-1.519 1.888-2.755 3.316-3.529 1.624-.88 3.749-.88 8-.88h22.225c4.25 0 6.376 0 7.999.88 1.428.774 2.589 2.01 3.317 3.53.827 1.727.827 3.988.827 8.511v7.74c0 4.523 0 6.784-.827 8.512-.728 1.52-1.889 2.755-3.317 3.529-1.623.88-3.749.88-7.999.88h-22.225c-4.251 0-6.376 0-8-.88-1.428-.774-2.589-2.01-3.316-3.53-.828-1.727-.828-3.988-.828-8.511v-7.74Z"/><path fill="#8CFF31" d="M113.567 35.68c-.451-3.87-.677-5.805.019-7.317a5.614 5.614 0 0 1 1.34-1.829c1.208-1.087 3.026-1.327 6.663-1.807l13.267-1.751c3.664-.484 5.497-.726 6.923.024a5.367 5.367 0 0 1 1.722 1.44c1.022 1.298 1.234 3.25 1.658 7.153.417 3.845.626 5.767-.073 7.267a5.62 5.62 0 0 1-1.34 1.813c-1.204 1.078-3.009 1.316-6.619 1.792l-13.266 1.751c-3.637.48-5.456.72-6.877-.02a5.384 5.384 0 0 1-1.719-1.426c-1.021-1.285-1.247-3.22-1.698-7.09Z"/><path fill="#07021A" d="M178.519 24.844c3.698 3.304 5.547 4.957 6.064 6.999a7.16 7.16 0 0 1 0 3.497c-.517 2.041-2.366 3.694-6.064 6.998-6.186 5.527-9.279 8.29-11.911 8.027-1.45-.146-2.807-.819-3.844-1.907-1.883-1.975-1.883-6.272-1.883-14.867s0-12.892 1.883-14.867c1.037-1.088 2.394-1.761 3.844-1.907 2.632-.264 5.725 2.5 11.911 8.027Z"/></svg>