<?xml version="1.0" standalone="no"?>
<!DOCTYPE svg PUBLIC "-//W3C//DTD SVG 20010904//EN"
 "http://www.w3.org/TR/2001/REC-SVG-20010904/DTD/svg10.dtd">
<svg version="1.0" xmlns="http://www.w3.org/2000/svg"
 width="512.000000pt" height="512.000000pt" viewBox="0 0 512.000000 512.000000"
 preserveAspectRatio="xMidYMid meet">
<metadata>
Created by potrace 1.14, written by Peter Selinger 2001-2017
</metadata>
<g transform="translate(0.000000,512.000000) scale(0.100000,-0.100000)"
fill="#000000" stroke="none">
<path d="M1470 3920 c-63 -4 -137 -13 -163 -19 -149 -35 -296 -173 -355 -333
-38 -103 -44 -232 -39 -908 4 -702 4 -700 70 -824 39 -74 144 -181 213 -218
114 -61 115 -61 854 -65 l676 -4 279 -301 c153 -165 290 -304 303 -309 68 -26
141 0 172 61 18 36 20 59 20 293 l0 254 138 6 c189 8 265 27 357 88 86 58 145
126 191 224 57 119 59 151 59 885 0 737 -1 746 -67 880 -40 82 -151 196 -228
233 -127 62 -91 60 -1280 62 -597 2 -1137 -1 -1200 -5z m1991 -433 c66 -32
142 -109 170 -171 28 -65 45 -159 73 -402 35 -314 38 -372 26 -448 -19 -121
-88 -219 -188 -270 -76 -38 -193 -58 -912 -151 -875 -114 -903 -114 -1032 12
-86 85 -110 165 -153 518 -35 289 -37 439 -6 517 48 123 151 199 311 232 56
11 1037 142 1420 190 19 2 80 3 135 2 87 -1 108 -5 156 -29z"/>
</g>
</svg>
