<svg xmlns="http://www.w3.org/2000/svg" width="682.667" height="682.667" version="1.0" viewBox="0 0 512 512"><path d="M147 120c-6.3.4-13.7 1.3-16.3 1.9-14.9 3.5-29.6 17.3-35.5 33.3-3.8 10.3-4.4 23.2-3.9 90.8.4 70.2.4 70 7 82.4 3.9 7.4 14.4 18.1 21.3 21.8 11.4 6.1 11.5 6.1 85.4 6.5l67.6.4 27.9 30.1c15.3 16.5 29 30.4 30.3 30.9 6.8 2.6 14.1 0 17.2-6.1 1.8-3.6 2-5.9 2-29.3v-25.4l13.8-.6c18.9-.8 26.5-2.7 35.7-8.8 8.6-5.8 14.5-12.6 19.1-22.4 5.7-11.9 5.9-15.1 5.9-88.5 0-73.7-.1-74.6-6.7-88-4-8.2-15.1-19.6-22.8-23.3-12.7-6.2-9.1-6-128-6.2-59.7-.2-113.7.1-120 .5zm199.1 43.3c6.6 3.2 14.2 10.9 17 17.1 2.8 6.5 4.5 15.9 7.3 40.2 3.5 31.4 3.8 37.2 2.6 44.8-1.9 12.1-8.8 21.9-18.8 27-7.6 3.8-19.3 5.8-91.2 15.1-87.5 11.4-90.3 11.4-103.2-1.2-8.6-8.5-11-16.5-15.3-51.8-3.5-28.9-3.7-43.9-.6-51.7 4.8-12.3 15.1-19.9 31.1-23.2 5.6-1.1 103.7-14.2 142-19 1.9-.2 8-.3 13.5-.2 8.7.1 10.8.5 15.6 2.9z"/></svg>