<svg xmlns="http://www.w3.org/2000/svg" xml:space="preserve" id="Layer_1" x="0" y="0" version="1.1" viewBox="0 0 1954.72 68.8"><style>.st0{fill:#f8d652}.st1{fill:#ef6cf6}.st2{fill:#fff}.st3{fill:#8cff31}</style><path d="M0 63.35V19.51c0-.96.32-1.76.95-2.39s1.43-.95 2.39-.95H37.3c.96 0 1.75.32 2.37.95.62.63.93 1.43.93 2.39v3.3c0 .96-.31 1.75-.93 2.37-.62.62-1.41.93-2.37.93H13.25v37.23c0 .91-.32 1.68-.97 2.3-.65.62-1.42.93-2.34.93h-6.6c-.91 0-1.7-.31-2.36-.93-.65-.61-.98-1.37-.98-2.29zM46.37 63.21V19.44c0-.91.33-1.69.98-2.32.66-.63 1.44-.95 2.36-.95h40.54c.91 0 1.69.33 2.34.98.64.66.97 1.44.97 2.36v3.3c0 .91-.32 1.69-.97 2.34-.65.65-1.42.97-2.34.97H59.62v10.23h26.37c.91 0 1.69.32 2.34.97.64.65.97 1.42.97 2.34v3.3c0 .91-.32 1.69-.97 2.34-.65.65-1.42.97-2.34.97H59.62v10.37h30.55c.89 0 1.65.32 2.29.95s.95 1.41.95 2.32v3.38c0 .91-.33 1.69-.98 2.34-.66.65-1.44.97-2.36.97H49.71c-.91 0-1.7-.32-2.36-.97-.65-.66-.98-1.46-.98-2.42zM100.02 63.28V19.51c0-.96.32-1.76.95-2.39s1.43-.95 2.39-.95h6.19c.91 0 1.69.32 2.34.95.64.63.97 1.41.97 2.32v35.19l20-35.12c.54-.91 1.28-1.7 2.21-2.36.94-.66 1.8-.98 2.6-.98h10.37c.91 0 1.69.33 2.32.98.63.66.95 1.44.95 2.36v43.77c0 .91-.33 1.69-.98 2.34-.66.65-1.44.97-2.36.97h-6.19c-.91 0-1.69-.32-2.34-.97-.65-.64-.97-1.42-.97-2.34V30.66l-18.35 32.62c-.54.91-1.3 1.69-2.29 2.34-.98.65-1.93.97-2.85.97h-11.64c-.91 0-1.7-.32-2.36-.97-.63-.65-.96-1.42-.96-2.34zm13.85-61.49c0-1.2.64-1.79 1.93-1.79h2.88c1.15 0 1.96.6 2.43 1.79.68 1.67 2.2 2.5 4.55 2.5s3.86-.83 4.52-2.5C130.68.6 131.5 0 132.64 0h2.88c1.29 0 1.93.6 1.93 1.79 0 3.21-1.08 5.75-3.23 7.63-2.16 1.88-5.01 2.81-8.56 2.81s-6.4-.94-8.56-2.81c-2.15-1.87-3.23-4.42-3.23-7.63zM161.37 63.21V19.58c0-.96.32-1.77.95-2.43.63-.66 1.41-.98 2.32-.98h14.31c.91 0 1.78.33 2.6.98.82.66 1.37 1.44 1.65 2.36l10.37 30.02 10.37-30.02c.28-.91.83-1.7 1.65-2.36.82-.66 1.69-.98 2.6-.98h14.31c.91 0 1.68.33 2.3.98.62.66.93 1.46.93 2.43v43.63c0 .96-.32 1.76-.97 2.41-.65.65-1.42.97-2.34.97h-6.33c-.91 0-1.69-.32-2.34-.97-.65-.64-.97-1.45-.97-2.41V28.86l-12.41 34.56c-.33.87-.9 1.61-1.72 2.23-.82.62-1.69.93-2.6.93h-5.03c-.91 0-1.78-.31-2.58-.93-.81-.62-1.39-1.37-1.74-2.23l-12.38-34.56v34.35c0 .96-.32 1.76-.97 2.41-.65.65-1.42.97-2.34.97h-6.33c-.91 0-1.7-.32-2.36-.97-.62-.65-.95-1.45-.95-2.41zM235.83 63.28V19.51c0-.96.32-1.76.95-2.39s1.43-.95 2.39-.95h6.19c.91 0 1.69.32 2.34.95.64.63.97 1.41.97 2.32v35.19l20-35.12c.54-.91 1.28-1.7 2.21-2.36.94-.66 1.8-.98 2.6-.98h10.37c.91 0 1.69.33 2.32.98.63.66.95 1.44.95 2.36v43.77c0 .91-.33 1.69-.98 2.34-.66.65-1.44.97-2.36.97h-6.19c-.91 0-1.69-.32-2.34-.97-.65-.64-.97-1.42-.97-2.34V30.66l-18.35 32.62c-.54.91-1.3 1.69-2.29 2.34-.98.65-1.93.97-2.85.97h-11.64c-.91 0-1.7-.32-2.36-.97-.63-.65-.96-1.42-.96-2.34zM319.78 20.71v-3.45c0-.91.33-1.69.98-2.34.66-.64 1.46-.97 2.43-.97h6.47c.96 0 1.76.32 2.41.97.64.65.97 1.42.97 2.34v3.45c8.02 0 14.39 1.65 19.12 4.94 4.73 3.29 7.1 8.54 7.1 15.73 0 7.2-2.37 12.44-7.1 15.73-4.73 3.29-11.11 4.94-19.12 4.94v3.45c0 .91-.33 1.69-1 2.34-.67.64-1.46.97-2.37.97h-6.47c-.91 0-1.71-.32-2.39-.97-.68-.65-1.02-1.42-1.02-2.34v-3.45c-8.02 0-14.38-1.65-19.11-4.94-4.72-3.29-7.08-8.54-7.08-15.73 0-7.19 2.36-12.44 7.08-15.73 4.72-3.3 11.09-4.94 19.1-4.94zm.39 31.85V30.23c-4.13 0-7.38.92-9.76 2.76-2.38 1.84-3.57 4.64-3.57 8.38 0 3.75 1.19 6.55 3.57 8.4 2.38 1.86 5.63 2.79 9.76 2.79zm12.51 0c4.12 0 7.38-.93 9.76-2.78 2.38-1.85 3.57-4.65 3.57-8.4s-1.19-6.54-3.57-8.38c-2.38-1.84-5.63-2.76-9.76-2.76v22.32zM365.73 63.28V19.51c0-.96.32-1.76.95-2.39s1.43-.95 2.39-.95h6.19c.91 0 1.69.32 2.34.95.64.63.97 1.41.97 2.32v35.19l20-35.12c.54-.91 1.28-1.7 2.21-2.36.94-.66 1.8-.98 2.6-.98h10.37c.91 0 1.69.33 2.32.98.63.66.95 1.44.95 2.36v43.77c0 .91-.33 1.69-.98 2.34-.66.65-1.44.97-2.36.97h-6.19c-.91 0-1.69-.32-2.34-.97-.65-.64-.97-1.42-.97-2.34V30.66l-18.35 32.62c-.54.91-1.3 1.69-2.29 2.34-.98.65-1.93.97-2.85.97h-11.64c-.91 0-1.7-.32-2.36-.97-.63-.65-.96-1.42-.96-2.34zM479.25 65.04c0 1.03-.61 1.55-1.83 1.55h-8.05c-.91 0-1.9-.32-2.95-.97-1.05-.64-1.88-1.42-2.46-2.34l-6.19-9.81c-1.48-2.39-2.97-4.19-4.46-5.4-1.5-1.21-3.3-1.81-5.41-1.81h-7.56v17.09c0 .91-.32 1.68-.97 2.3-.65.62-1.42.93-2.34.93h-6.61c-.91 0-1.7-.33-2.36-1-.66-.67-.98-1.46-.98-2.37v-43.7c0-.91.33-1.71.98-2.39.66-.68 1.44-1.02 2.36-1.02h6.61c.91 0 1.69.34 2.34 1.02.64.68.97 1.48.97 2.39v16.84h7.56c2.06 0 3.87-.56 5.43-1.69 1.56-1.12 3.04-2.94 4.45-5.45l5.45-9.7c1.24-2.25 2.93-3.39 5.06-3.41h8.12c1.12 0 1.69.49 1.69 1.48 0 .54-.2 1.18-.6 1.93l-7.63 13.82c-1.1 2.02-2.34 3.68-3.71 4.99s-3.16 2.24-5.36 2.78c1.55.33 3.13 1.3 4.76 2.92 1.63 1.62 3.06 3.38 4.31 5.27l8.79 13.99c.39.68.59 1.27.59 1.76zM480.16 63.35l8.82-33.47c2.39-9.12 10.17-13.69 23.34-13.71h18.95c.87 0 1.59.33 2.16.98.57.66.86 1.42.86 2.29v43.91c0 .91-.33 1.68-.98 2.3-.66.62-1.44.93-2.36.93h-6.61c-.96 0-1.75-.31-2.37-.93-.62-.62-.93-1.41-.93-2.37v-8.86h-25l-2.36 8.86c-.23.96-.76 1.75-1.58 2.37-.82.62-1.69.93-2.6.93h-6.93c-.91 0-1.57-.26-1.97-.79-.4-.53-.59-.99-.58-1.39.03-.39.07-.74.14-1.05zm18.5-18.88h22.39V26.12h-10.02c-2.25 0-4.21.64-5.89 1.92-1.68 1.28-2.81 2.99-3.39 5.15l-3.09 11.28zM544.36 63.28V19.44c0-.91.33-1.69.98-2.32.66-.63 1.44-.95 2.36-.95h6.61c.91 0 1.69.33 2.34.98.64.66.97 1.44.97 2.36v37.12h23.62v-37.2c0-.91.32-1.69.97-2.32.64-.63 1.42-.95 2.34-.95h6.64c.89 0 1.66.33 2.32.98.66.66.98 1.44.98 2.36v37.12h3.8c.91 0 1.7.33 2.36.98.66.66.98 1.44.98 2.36v3.3c0 .91-.33 1.69-.98 2.34-.66.65-1.44.97-2.36.97H547.7c-.91 0-1.7-.32-2.36-.97-.65-.63-.98-1.4-.98-2.32zM606.66 63.28V19.51c0-.96.32-1.76.95-2.39s1.43-.95 2.39-.95h6.19c.91 0 1.69.32 2.34.95.64.63.97 1.41.97 2.32v35.19l20-35.12c.54-.91 1.28-1.7 2.21-2.36.94-.66 1.8-.98 2.6-.98h10.37c.91 0 1.69.33 2.32.98.63.66.95 1.44.95 2.36v43.77c0 .91-.33 1.69-.98 2.34-.66.65-1.44.97-2.36.97h-6.19c-.91 0-1.69-.32-2.34-.97-.65-.64-.97-1.42-.97-2.34V30.66l-18.35 32.62c-.54.91-1.3 1.69-2.29 2.34-.98.65-1.93.97-2.85.97H610c-.91 0-1.7-.32-2.36-.97-.66-.65-.98-1.42-.98-2.34zM665.19 64.58c0-.37.15-.81.46-1.3l9.7-16c-6.63-2.88-9.94-7.78-9.91-14.7 0-5.23 1.81-9.27 5.43-12.13 3.62-2.86 8.16-4.29 13.62-4.29h27.53c.87 0 1.61.32 2.23.95.62.63.93 1.41.93 2.32v43.91c0 .91-.32 1.68-.97 2.3-.65.62-1.42.93-2.34.93h-6.64c-.91 0-1.69-.32-2.34-.97-.65-.64-.97-1.42-.97-2.34V48.73h-12.59l-8.44 14.62c-1.2 2.16-2.9 3.23-5.1 3.23h-8.86c-1.15.01-1.74-.66-1.74-2zm13.47-32.27c0 4.13 1.95 6.19 5.84 6.19h17.44V26.12H684.5c-3.9 0-5.84 2.06-5.84 6.19zM732.16 55.2c3.16 0 4.75 1.59 4.75 4.78v2.21c0 1.48-.4 2.64-1.21 3.48s-1.99 1.27-3.53 1.27h-4.32c-1.55 0-2.72-.42-3.53-1.27s-1.21-2-1.21-3.48v-2.21c0-1.55.41-2.73 1.23-3.55.82-.82 1.99-1.23 3.52-1.23h4.3z" class="st0"/><path d="M770.03 63.28V19.51c0-.96.32-1.76.95-2.39s1.43-.95 2.39-.95h6.19c.91 0 1.69.32 2.34.95.64.63.97 1.41.97 2.32v35.19l20-35.12c.54-.91 1.28-1.7 2.21-2.36.94-.66 1.8-.98 2.6-.98h10.37c.91 0 1.69.33 2.32.98.63.66.95 1.44.95 2.36v43.77c0 .91-.33 1.69-.98 2.34-.66.65-1.44.97-2.36.97h-6.19c-.91 0-1.69-.32-2.34-.97-.65-.64-.97-1.42-.97-2.34V30.66l-18.35 32.62c-.54.91-1.3 1.69-2.29 2.34-.98.65-1.93.97-2.85.97h-11.64c-.91 0-1.7-.32-2.36-.97-.63-.65-.96-1.42-.96-2.34zM831.38 63.35V19.51c0-.96.32-1.76.95-2.39s1.43-.95 2.39-.95h33.96c.96 0 1.75.32 2.37.95.62.63.93 1.43.93 2.39v3.3c0 .96-.31 1.75-.93 2.37-.62.62-1.41.93-2.37.93h-24.05v37.23c0 .91-.32 1.68-.97 2.3-.65.62-1.42.93-2.34.93h-6.61c-.91 0-1.7-.31-2.36-.93-.65-.61-.97-1.37-.97-2.29zM877.75 63.28V19.51c0-.91.32-1.7.95-2.36.63-.66 1.41-.98 2.32-.98h26.82c14.18 0 21.27 6.53 21.27 19.6s-7.09 19.6-21.27 19.6H891v7.91c0 .91-.32 1.69-.97 2.34-.65.65-1.42.97-2.34.97h-6.61c-.91 0-1.7-.32-2.36-.97a3.17 3.17 0 0 1-.97-2.34zM891 45.42h12.83c3.94 0 6.93-.66 8.96-1.99 2.04-1.32 3.06-3.88 3.06-7.66 0-3.78-1.02-6.34-3.06-7.66-2.04-1.32-5.03-1.99-8.96-1.99H891v19.3zM935.58 63.21v-43.7c0-.96.32-1.76.95-2.39s1.43-.95 2.39-.95h6.61c.91 0 1.69.33 2.34.98.64.66.97 1.44.97 2.36v13.82h14.48c5.51 0 10.08 1.46 13.71 4.39 3.63 2.93 5.45 7.01 5.45 12.23 0 5.23-1.82 9.3-5.45 12.23-3.63 2.93-8.2 4.39-13.71 4.39h-24.57c-.84 0-1.58-.33-2.21-1s-.96-1.45-.96-2.36zm13.25-6.57h14.48c3.94 0 5.91-2.23 5.91-6.7s-1.97-6.7-5.91-6.7h-14.48v13.4zm40.68 6.71V19.51c0-.91.33-1.7.98-2.36.66-.66 1.44-.98 2.36-.98h6.68c.96 0 1.76.33 2.41.98.64.66.97 1.44.97 2.36v43.77c0 .91-.33 1.69-1 2.34-.67.65-1.46.97-2.37.97h-6.68c-.91 0-1.7-.31-2.36-.93-.66-.63-.99-1.39-.99-2.31zM1019.92 55.2c3.16 0 4.75 1.59 4.75 4.78v2.21c0 1.48-.4 2.64-1.21 3.48s-1.99 1.27-3.53 1.27h-4.32c-1.55 0-2.72-.42-3.53-1.27s-1.21-2-1.21-3.48v-2.21c0-1.55.41-2.73 1.23-3.55.82-.82 1.99-1.23 3.52-1.23h4.3z" class="st1"/><path d="M1057.78 63.35V19.51c0-.91.33-1.7.98-2.36.66-.66 1.44-.98 2.36-.98h6.54c.96 0 1.76.33 2.41.98.64.66.97 1.44.97 2.36v43.77c0 .91-.33 1.69-1 2.34-.67.65-1.46.97-2.37.97h-6.54c-.91 0-1.7-.31-2.36-.93-.66-.63-.99-1.39-.99-2.31zM1081.12 63.35V19.58c0-.96.33-1.77.98-2.43.66-.66 1.44-.98 2.36-.98h19.65c10.17 0 17.57 2.03 22.2 6.1 4.63 4.07 6.94 10.44 6.94 19.12s-2.31 15.05-6.94 19.11c-4.63 4.06-12.03 6.08-22.2 6.08h-19.65c-.91 0-1.7-.31-2.36-.93-.65-.62-.98-1.38-.98-2.3zm13.26-6.71h9.35c6.3 0 10.59-1.15 12.87-3.45 2.27-2.3 3.41-6.23 3.41-11.79 0-5.57-1.14-9.5-3.41-11.81-2.27-2.31-6.56-3.46-12.87-3.46h-9.35v30.51zM1140.47 63.35V19.58c0-.96.33-1.77.98-2.43.66-.66 1.44-.98 2.36-.98h19.65c10.17 0 17.57 2.03 22.2 6.1 4.63 4.07 6.94 10.44 6.94 19.12s-2.31 15.05-6.94 19.11c-4.63 4.06-12.03 6.08-22.2 6.08h-19.65c-.91 0-1.7-.31-2.36-.93-.65-.62-.98-1.38-.98-2.3zm13.25-6.71h9.35c6.3 0 10.59-1.15 12.87-3.45 2.27-2.3 3.41-6.23 3.41-11.79 0-5.57-1.14-9.5-3.41-11.81-2.27-2.31-6.56-3.46-12.87-3.46h-9.35v30.51zM1196.93 41.03c0-8.93 2.4-15.48 7.21-19.65 4.8-4.17 11.87-6.26 21.18-6.26s16.35 1.98 21.09 5.94c4.75 3.96 7.12 10.37 7.12 19.23 0 4.69-.91 8.51-2.74 11.46-1.29 2.13-2.67 4.03-4.15 5.7h5.59c.96 0 1.76.32 2.39.97.63.65.95 1.42.95 2.34v2.88c0 .91-.32 1.69-.95 2.34s-1.43.97-2.39.97h-27c-9.26 0-16.29-2.09-21.09-6.26-4.81-4.18-7.21-10.73-7.21-19.66zm28.3 16.42c10.03 0 15.05-5.72 15.05-17.16 0-5.32-1.18-9.26-3.55-11.83s-6.18-3.85-11.44-3.85-9.09 1.39-11.5 4.18c-2.4 2.79-3.6 6.87-3.6 12.23 0 5.37 1.2 9.45 3.6 12.23 2.4 2.8 6.21 4.2 11.44 4.2zM1260.6 63.35V19.58c0-.96.33-1.77.98-2.43.66-.66 1.44-.98 2.36-.98h19.65c10.17 0 17.57 2.03 22.2 6.1 4.63 4.07 6.94 10.44 6.94 19.12s-2.31 15.05-6.94 19.11c-4.63 4.06-12.03 6.08-22.2 6.08h-19.65c-.91 0-1.7-.31-2.36-.93-.65-.62-.98-1.38-.98-2.3zm13.25-6.71h9.35c6.3 0 10.59-1.15 12.87-3.45 2.27-2.3 3.41-6.23 3.41-11.79 0-5.57-1.14-9.5-3.41-11.81-2.27-2.31-6.56-3.46-12.87-3.46h-9.35v30.51zM1326.87 55.2c3.16 0 4.75 1.59 4.75 4.78v2.21c0 1.48-.4 2.64-1.21 3.48s-1.99 1.27-3.53 1.27h-4.32c-1.55 0-2.72-.42-3.53-1.27s-1.21-2-1.21-3.48v-2.21c0-1.55.41-2.73 1.23-3.55.82-.82 1.99-1.23 3.52-1.23h4.3z" class="st2"/><path d="M1385.61 22.82v-3.3c0-.96.32-1.76.95-2.39s1.43-.95 2.39-.95h44.61c.96 0 1.76.32 2.39.95s.95 1.43.95 2.39v3.3c0 .96-.32 1.75-.95 2.37-.63.62-1.43.93-2.39.93h-15.68v37.23c0 .91-.32 1.68-.97 2.3-.64.62-1.42.93-2.34.93h-6.64c-.91 0-1.69-.31-2.34-.93-.64-.62-.97-1.39-.97-2.3V26.12h-15.68c-.96 0-1.76-.31-2.39-.93-.62-.62-.94-1.41-.94-2.37zM1442.64 63.28V19.51c0-.91.32-1.7.95-2.36.63-.66 1.41-.98 2.32-.98h26.82c14.18 0 21.27 6.53 21.27 19.6s-7.09 19.6-21.27 19.6h-16.84v7.91c0 .91-.32 1.69-.97 2.34-.64.65-1.42.97-2.34.97h-6.61c-.91 0-1.7-.32-2.36-.97a3.17 3.17 0 0 1-.97-2.34zm13.25-17.86h12.83c3.94 0 6.93-.66 8.96-1.99 2.04-1.32 3.06-3.88 3.06-7.66 0-3.78-1.02-6.34-3.06-7.66-2.04-1.32-5.03-1.99-8.96-1.99h-12.83v19.3zM1500.47 63.21V19.44c0-.91.33-1.69.98-2.32s1.44-.95 2.36-.95h40.54c.91 0 1.69.33 2.34.98.64.66.97 1.44.97 2.36v3.3c0 .91-.32 1.69-.97 2.34-.64.65-1.42.97-2.34.97h-30.62v10.23h26.37c.91 0 1.69.32 2.34.97.64.65.97 1.42.97 2.34v3.3c0 .91-.32 1.69-.97 2.34-.64.65-1.42.97-2.34.97h-26.37v10.37h30.55c.89 0 1.65.32 2.29.95s.95 1.41.95 2.32v3.38c0 .91-.33 1.69-.98 2.34-.66.65-1.44.97-2.36.97h-40.36c-.91 0-1.7-.32-2.36-.97-.66-.66-.99-1.46-.99-2.42zM1554.12 63.28V19.51c0-.91.33-1.7.98-2.36.66-.66 1.46-.98 2.43-.98h6.54c.91 0 1.69.33 2.34.98.64.66.97 1.44.97 2.36v15.82h24.19V19.51c0-.91.33-1.7.98-2.36.66-.66 1.44-.98 2.36-.98h6.54c.96 0 1.76.33 2.41.98.64.66.97 1.44.97 2.36v43.77c0 .91-.33 1.69-1 2.34-.67.65-1.46.97-2.37.97h-6.54c-.91 0-1.7-.31-2.36-.93-.66-.62-.98-1.39-.98-2.3V45.28h-24.19v18.07c0 .91-.32 1.68-.97 2.3-.64.62-1.42.93-2.34.93h-6.54c-.91 0-1.71-.32-2.39-.97-.69-.64-1.03-1.41-1.03-2.33zM1610.75 63.35l8.82-33.47c2.39-9.12 10.17-13.69 23.34-13.71h18.95c.87 0 1.59.33 2.16.98.57.66.86 1.42.86 2.29v43.91c0 .91-.33 1.68-.98 2.3-.66.62-1.44.93-2.36.93h-6.61c-.96 0-1.75-.31-2.37-.93-.62-.62-.93-1.41-.93-2.37v-8.86h-25l-2.36 8.86c-.23.96-.76 1.75-1.58 2.37-.82.62-1.69.93-2.6.93h-6.93c-.91 0-1.57-.26-1.97-.79s-.59-.99-.58-1.39c.03-.39.07-.74.14-1.05zm18.5-18.88h22.39V26.12h-10.02c-2.25 0-4.21.64-5.89 1.92-1.68 1.28-2.81 2.99-3.39 5.15l-3.09 11.28zM1671.15 17.54c0-.96.55-1.44 1.65-1.44h8.12c2.11 0 3.8 1.14 5.06 3.41l5.45 9.7c1.41 2.51 2.89 4.32 4.45 5.45s3.37 1.69 5.43 1.69h1.58V19.51c0-.91.32-1.71.97-2.39.64-.68 1.42-1.02 2.34-1.02h6.64c.91 0 1.69.34 2.34 1.02.64.68.97 1.48.97 2.39v16.84h1.58c2.06 0 3.87-.56 5.43-1.69s3.03-2.94 4.41-5.45l5.48-9.7c1.24-2.27 2.92-3.41 5.03-3.41h8.16c.91 0 1.46.32 1.65.95v.49c0 .59-.19 1.24-.56 1.97l-7.63 13.82c-1.12 2.02-2.37 3.68-3.73 4.99-1.36 1.31-3.15 2.24-5.38 2.78 1.55.33 3.13 1.3 4.76 2.92s3.08 3.38 4.34 5.27l8.75 13.99c.63 1.03.81 1.84.54 2.43-.27.59-.85.88-1.74.88h-8.09c-.91 0-1.9-.32-2.95-.97-1.05-.64-1.86-1.42-2.43-2.34l-6.22-9.81c-1.48-2.39-2.96-4.19-4.45-5.4-1.49-1.21-3.29-1.81-5.4-1.81h-1.58v17.09c0 .91-.32 1.68-.97 2.3-.64.62-1.42.93-2.34.93h-6.64c-.91 0-1.69-.31-2.34-.93-.64-.62-.97-1.39-.97-2.3V46.27h-1.58c-2.11 0-3.91.6-5.4 1.81-1.49 1.21-2.98 3.01-4.48 5.4l-6.19 9.81c-.56.91-1.37 1.69-2.43 2.34-1.05.65-2.04.97-2.95.97h-8.09c-.91 0-1.49-.32-1.72-.95-.09-.19-.14-.46-.14-.83 0-.36.21-.87.63-1.53l8.79-13.99c1.27-1.9 2.71-3.66 4.34-5.27s3.21-2.59 4.73-2.92c-2.2-.54-3.99-1.46-5.36-2.78-1.37-1.31-2.61-2.98-3.71-4.99l-7.63-13.82c-.33-.73-.52-1.39-.52-1.98zM1754.16 63.21V19.44c0-.91.33-1.69.98-2.32s1.44-.95 2.36-.95h40.54c.91 0 1.69.33 2.34.98.64.66.97 1.44.97 2.36v3.3c0 .91-.32 1.69-.97 2.34-.64.65-1.42.97-2.34.97h-30.62v10.23h26.37c.91 0 1.69.32 2.34.97.64.65.97 1.42.97 2.34v3.3c0 .91-.32 1.69-.97 2.34-.64.65-1.42.97-2.34.97h-26.37v10.37h30.55c.89 0 1.65.32 2.29.95s.95 1.41.95 2.32v3.38c0 .91-.33 1.69-.98 2.34-.66.65-1.44.97-2.36.97h-40.36c-.91 0-1.7-.32-2.36-.97-.67-.66-.99-1.46-.99-2.42zM1807.8 63.28V19.51c0-.91.32-1.7.95-2.36.63-.66 1.41-.98 2.32-.98h26.82c14.18 0 21.27 6.53 21.27 19.6s-7.09 19.6-21.27 19.6h-16.84v7.91c0 .91-.32 1.69-.97 2.34-.64.65-1.42.97-2.34.97h-6.61c-.91 0-1.7-.32-2.36-.97-.64-.65-.97-1.42-.97-2.34zm13.26-17.86h12.83c3.94 0 6.93-.66 8.96-1.99 2.04-1.32 3.06-3.88 3.06-7.66 0-3.78-1.02-6.34-3.06-7.66-2.04-1.32-5.03-1.99-8.96-1.99h-12.83v19.3zM1865.64 63.21v-43.7c0-.96.32-1.76.95-2.39s1.43-.95 2.39-.95h6.61c.91 0 1.69.33 2.34.98.64.66.97 1.44.97 2.36v13.82h14.48c5.51 0 10.08 1.46 13.71 4.39 3.63 2.93 5.45 7.01 5.45 12.23 0 5.23-1.82 9.3-5.45 12.23-3.63 2.93-8.2 4.39-13.71 4.39h-24.57c-.84 0-1.58-.33-2.21-1s-.96-1.45-.96-2.36zm13.25-6.57h14.48c3.94 0 5.91-2.23 5.91-6.7s-1.97-6.7-5.91-6.7h-14.48v13.4zm40.68 6.71V19.51c0-.91.33-1.7.98-2.36.66-.66 1.44-.98 2.36-.98h6.68c.96 0 1.76.33 2.41.98.64.66.97 1.44.97 2.36v43.77c0 .91-.33 1.69-1 2.34-.67.65-1.46.97-2.37.97h-6.68c-.91 0-1.7-.31-2.36-.93-.67-.63-.99-1.39-.99-2.31zM1949.98 55.2c3.16 0 4.75 1.59 4.75 4.78v2.21c0 1.48-.4 2.64-1.21 3.48s-1.99 1.27-3.53 1.27h-4.32c-1.55 0-2.72-.42-3.53-1.27s-1.21-2-1.21-3.48v-2.21c0-1.55.41-2.73 1.23-3.55.82-.82 1.99-1.23 3.52-1.23h4.3z" class="st3"/></svg>