<svg xmlns="http://www.w3.org/2000/svg" xml:space="preserve" id="Layer_1" x="0" y="0" version="1.1" viewBox="0 0 2177.01 54.84"><style>.st0{fill:#8cff31}.st1{fill:#fff}.st2{fill:#f8d652}.st3{fill:#ef6cf6}</style><path d="M0 49.32V5.55c0-.96.32-1.75.95-2.39s1.43-.95 2.39-.95h6.19c.91 0 1.69.32 2.34.95.64.63.97 1.41.97 2.32v35.19l20-35.12c.54-.91 1.28-1.7 2.21-2.36.94-.66 1.8-.98 2.6-.98h10.37c.91 0 1.69.33 2.32.98s.95 1.44.95 2.36v43.77c0 .91-.33 1.69-.98 2.34-.66.64-1.44.97-2.36.97h-6.19c-.91 0-1.69-.32-2.34-.97-.65-.64-.97-1.42-.97-2.34V16.7L20.11 49.32c-.54.91-1.3 1.69-2.29 2.34s-1.93.97-2.85.97H3.34c-.91 0-1.7-.32-2.36-.97-.65-.64-.98-1.42-.98-2.34zm61.35.07V5.55c0-.96.32-1.76.95-2.39s1.43-.95 2.39-.95h33.96c.96 0 1.75.32 2.37.95s.93 1.43.93 2.39v3.3c0 .96-.31 1.75-.93 2.37s-1.41.93-2.37.93H74.6v37.23c0 .91-.32 1.68-.97 2.3s-1.42.93-2.34.93h-6.61c-.91 0-1.7-.31-2.36-.93-.64-.6-.97-1.37-.97-2.29zm46.37-.07V5.55c0-.91.32-1.7.95-2.36s1.41-.98 2.32-.98h26.82c14.18 0 21.27 6.53 21.27 19.6s-7.09 19.6-21.27 19.6h-16.84v7.91c0 .91-.32 1.69-.97 2.34-.65.64-1.42.97-2.34.97h-6.61c-.91 0-1.7-.32-2.36-.97-.64-.64-.97-1.42-.97-2.34zm13.25-17.86h12.83c3.94 0 6.93-.66 8.96-1.99s3.06-3.88 3.06-7.66-1.02-6.34-3.06-7.66-5.03-1.99-8.96-1.99h-12.83v19.3zm44.58 17.79V5.55c0-.96.32-1.76.95-2.39s1.43-.95 2.39-.95h6.61c.91 0 1.69.33 2.34.98.64.66.97 1.44.97 2.36v13.82h14.48c5.51 0 10.08 1.46 13.71 4.39s5.45 7.01 5.45 12.23-1.82 9.3-5.45 12.23c-3.63 2.93-8.2 4.39-13.71 4.39h-24.57c-.84 0-1.58-.33-2.21-1s-.96-1.44-.96-2.36zm13.25-6.57h14.48c3.94 0 5.91-2.23 5.91-6.7s-1.97-6.7-5.91-6.7H178.8v13.4zm40.68 6.71V5.55c0-.91.33-1.7.98-2.36.66-.66 1.44-.98 2.36-.98h6.68c.96 0 1.76.33 2.41.98.64.66.97 1.44.97 2.36v43.77c0 .91-.33 1.69-1 2.34s-1.46.97-2.37.97h-6.68c-.91 0-1.7-.31-2.36-.93s-.99-1.39-.99-2.31zm30.41-8.15c3.16 0 4.75 1.59 4.75 4.78v2.21c0 1.48-.4 2.64-1.21 3.48s-1.99 1.27-3.53 1.27h-4.32c-1.55 0-2.72-.42-3.53-1.27s-1.21-2-1.21-3.48v-2.21c0-1.55.41-2.73 1.23-3.55.82-.82 1.99-1.23 3.52-1.23h4.3z" class="st0"/><path d="M283.43 8.86v-3.3c0-.96.32-1.76.95-2.39s1.43-.95 2.39-.95h44.61c.96 0 1.76.32 2.39.95s.95 1.43.95 2.39v3.3c0 .96-.32 1.75-.95 2.37s-1.43.93-2.39.93H315.7v37.23c0 .91-.32 1.68-.97 2.3s-1.42.93-2.34.93h-6.64c-.91 0-1.69-.31-2.34-.93s-.97-1.39-.97-2.3V12.16h-15.68c-.96 0-1.76-.31-2.39-.93s-.94-1.41-.94-2.37zm57.02 40.46V5.55c0-.91.32-1.7.95-2.36s1.41-.98 2.32-.98h26.82c14.18 0 21.27 6.53 21.27 19.6s-7.09 19.6-21.27 19.6H353.7v7.91c0 .91-.32 1.69-.97 2.34-.65.64-1.42.97-2.34.97h-6.61c-.91 0-1.7-.32-2.36-.97-.64-.64-.97-1.42-.97-2.34zm13.26-17.86h12.83c3.94 0 6.93-.66 8.96-1.99s3.06-3.88 3.06-7.66-1.02-6.34-3.06-7.66-5.03-1.99-8.96-1.99h-12.83v19.3zm44.58 17.79V5.48c0-.91.33-1.69.98-2.32.66-.63 1.44-.95 2.36-.95h40.54c.91 0 1.69.33 2.34.98.64.66.97 1.44.97 2.36v3.3c0 .91-.32 1.69-.97 2.34-.65.64-1.42.97-2.34.97h-30.62v10.23h26.37c.91 0 1.69.32 2.34.97.64.64.97 1.42.97 2.34V29c0 .91-.32 1.69-.97 2.34-.65.64-1.42.97-2.34.97h-26.37v10.37h30.55c.89 0 1.65.32 2.29.95s.95 1.41.95 2.32v3.38c0 .91-.33 1.69-.98 2.34-.66.64-1.44.97-2.36.97h-40.36c-.91 0-1.7-.32-2.36-.97-.67-.65-.99-1.46-.99-2.42zm53.64.07V5.55c0-.91.33-1.7.98-2.36.66-.66 1.46-.98 2.43-.98h6.54c.91 0 1.69.33 2.34.98.64.66.97 1.44.97 2.36v15.82h24.19V5.55c0-.91.33-1.7.98-2.36.66-.66 1.44-.98 2.36-.98h6.54c.96 0 1.76.33 2.41.98.64.66.97 1.44.97 2.36v43.77c0 .91-.33 1.69-1 2.34s-1.46.97-2.37.97h-6.54c-.91 0-1.7-.31-2.36-.93-.66-.62-.98-1.39-.98-2.3V31.32H465.2v18.07c0 .91-.32 1.68-.97 2.3s-1.42.93-2.34.93h-6.54c-.91 0-1.71-.32-2.39-.97-.69-.63-1.03-1.41-1.03-2.33zm56.64.07 8.82-33.47c2.39-9.12 10.17-13.69 23.34-13.71h18.95c.87 0 1.59.33 2.16.98.57.66.86 1.42.86 2.29v43.91c0 .91-.33 1.68-.98 2.3-.66.62-1.44.93-2.36.93h-6.61c-.96 0-1.75-.31-2.37-.93s-.93-1.41-.93-2.37v-8.86h-25l-2.36 8.86c-.23.96-.76 1.75-1.58 2.37s-1.69.93-2.6.93H511c-.91 0-1.57-.26-1.97-.79-.4-.53-.59-.99-.58-1.39.01-.39.05-.74.12-1.05zm18.49-18.87h22.39V12.16h-10.02c-2.25 0-4.21.64-5.89 1.92s-2.81 2.99-3.39 5.15l-3.09 11.29zm41.91-26.93c0-.96.55-1.44 1.65-1.44h8.12c2.11 0 3.8 1.14 5.06 3.41l5.45 9.7c1.41 2.51 2.89 4.32 4.45 5.45 1.56 1.12 3.37 1.69 5.43 1.69h1.58V5.55c0-.91.32-1.71.97-2.39.64-.68 1.42-1.02 2.34-1.02h6.64c.91 0 1.69.34 2.34 1.02.64.68.97 1.48.97 2.39v16.84h1.58c2.06 0 3.87-.56 5.43-1.69 1.56-1.12 3.03-2.94 4.41-5.45l5.48-9.7c1.24-2.27 2.92-3.41 5.03-3.41h8.16c.91 0 1.46.32 1.65.95v.49c0 .59-.19 1.24-.56 1.97l-7.63 13.82c-1.12 2.02-2.37 3.68-3.73 4.99s-3.15 2.24-5.38 2.78c1.55.33 3.13 1.3 4.76 2.92s3.08 3.38 4.34 5.27l8.75 13.99c.63 1.03.81 1.84.54 2.43s-.85.88-1.74.88H637c-.91 0-1.9-.32-2.95-.97s-1.86-1.42-2.43-2.34l-6.22-9.81c-1.48-2.39-2.96-4.19-4.45-5.4-1.49-1.21-3.29-1.81-5.4-1.81h-1.58v17.09c0 .91-.32 1.68-.97 2.3-.65.62-1.42.93-2.34.93h-6.64c-.91 0-1.69-.31-2.34-.93s-.97-1.39-.97-2.3V32.31h-1.58c-2.11 0-3.91.6-5.4 1.81-1.49 1.21-2.98 3.01-4.48 5.4l-6.19 9.81c-.56.91-1.37 1.69-2.43 2.34s-2.04.97-2.95.97h-8.09c-.91 0-1.49-.32-1.72-.95-.09-.19-.14-.46-.14-.83s.21-.87.63-1.53l8.79-13.99c1.27-1.9 2.71-3.66 4.34-5.27 1.63-1.62 3.2-2.59 4.73-2.92-2.2-.54-3.99-1.46-5.36-2.78s-2.61-2.98-3.71-4.99l-7.63-13.82c-.36-.73-.55-1.39-.55-1.97zm83 45.66V5.48c0-.91.33-1.69.98-2.32s1.44-.95 2.36-.95h40.54c.91 0 1.69.33 2.34.98s.97 1.44.97 2.36v3.3c0 .91-.32 1.69-.97 2.34s-1.42.97-2.34.97h-30.62v10.23h26.37c.91 0 1.69.32 2.34.97s.97 1.42.97 2.34V29c0 .91-.32 1.69-.97 2.34s-1.42.97-2.34.97h-26.37v10.37h30.55c.89 0 1.65.32 2.29.95s.95 1.41.95 2.32v3.38c0 .91-.33 1.69-.98 2.34s-1.44.97-2.36.97h-40.36c-.91 0-1.7-.32-2.36-.97s-.99-1.46-.99-2.42zm53.65.07V5.55c0-.91.32-1.7.95-2.36s1.41-.98 2.32-.98h26.82c14.18 0 21.27 6.53 21.27 19.6s-7.09 19.6-21.27 19.6h-16.84v7.91c0 .91-.32 1.69-.97 2.34s-1.42.97-2.34.97h-6.61c-.91 0-1.7-.32-2.36-.97s-.97-1.42-.97-2.34zm13.26-17.86h12.83c3.94 0 6.93-.66 8.96-1.99s3.06-3.88 3.06-7.66-1.02-6.34-3.06-7.66-5.03-1.99-8.96-1.99h-12.83v19.3zm44.57 17.79V5.55c0-.96.32-1.76.95-2.39s1.43-.95 2.39-.95h6.61c.91 0 1.69.33 2.34.98s.97 1.44.97 2.36v13.82h14.48c5.51 0 10.08 1.46 13.71 4.39s5.45 7.01 5.45 12.23-1.82 9.3-5.45 12.23-8.2 4.39-13.71 4.39h-24.57c-.84 0-1.58-.33-2.21-1s-.96-1.44-.96-2.36zm13.26-6.57h14.48c3.94 0 5.91-2.23 5.91-6.7s-1.97-6.7-5.91-6.7h-14.48v13.4zm40.67 6.71V5.55c0-.91.33-1.7.98-2.36s1.44-.98 2.36-.98h6.68c.96 0 1.76.33 2.41.98s.97 1.44.97 2.36v43.77c0 .91-.33 1.69-1 2.34s-1.46.97-2.37.97h-6.68c-.91 0-1.7-.31-2.36-.93s-.99-1.39-.99-2.31zm30.41-8.15c3.16 0 4.75 1.59 4.75 4.78v2.21c0 1.48-.4 2.64-1.21 3.48s-1.99 1.27-3.53 1.27h-4.32c-1.55 0-2.72-.42-3.53-1.27s-1.21-2-1.21-3.48v-2.21c0-1.55.41-2.73 1.23-3.55s1.99-1.23 3.52-1.23h4.3z" class="st1"/><path d="M914.5 46.69c-4.35-4.15-6.52-10.56-6.52-19.25s2.17-15.11 6.52-19.27 10.87-6.24 19.56-6.24h7.84c5.32 0 10.03 1.38 14.12 4.15s6.13 6.55 6.13 11.36c0 1.38-.41 2.37-1.23 2.97s-1.62.9-2.39.9h-4.18c-2.16 0-3.83-1.29-5.03-3.87-1.73-3.7-4.62-5.55-8.65-5.55h-6.26c-5.13 0-8.61 1.1-10.44 3.3s-2.74 6.28-2.74 12.23.91 10.04 2.74 12.25S929.29 43 934.42 43h7c4.03 0 6.9-1.85 8.61-5.55 1.2-2.6 2.88-3.9 5.06-3.9h4.18c1.1 0 1.97.41 2.62 1.23s.97 1.71.97 2.67c0 4.8-2.04 8.58-6.12 11.34s-8.78 4.13-14.1 4.13h-8.58c-8.69-.01-15.21-2.08-19.56-6.23zm101.71.72c-4.79 4.21-11.82 6.31-21.09 6.31s-16.31-2.1-21.11-6.31-7.21-10.87-7.21-19.99 2.4-15.77 7.21-19.97 11.84-6.29 21.11-6.29 16.3 2.1 21.09 6.29 7.19 10.85 7.19 19.97-2.4 15.78-7.19 19.99zm-9.62-32.54c-2.37-2.81-6.19-4.22-11.48-4.22s-9.12 1.41-11.5 4.22-3.57 7-3.57 12.57 1.19 9.75 3.57 12.55 6.21 4.2 11.5 4.2 9.11-1.4 11.48-4.2 3.55-6.98 3.55-12.55-1.18-9.76-3.55-12.57zm46.62-8.12V3.3c0-.91.33-1.69.98-2.34s1.46-.97 2.43-.97h6.47c.96 0 1.76.32 2.41.97s.97 1.42.97 2.34v3.45c8.02 0 14.39 1.65 19.12 4.94s7.1 8.54 7.1 15.73-2.37 12.44-7.1 15.73-11.11 4.94-19.12 4.94v3.45c0 .91-.33 1.69-1 2.34-.67.64-1.46.97-2.37.97h-6.47c-.91 0-1.71-.32-2.39-.97s-1.02-1.42-1.02-2.34v-3.45c-8.02 0-14.38-1.65-19.11-4.94s-7.08-8.54-7.08-15.73 2.36-12.44 7.08-15.73 11.09-4.94 19.1-4.94zm.39 31.85V16.28c-4.12 0-7.38.92-9.76 2.76s-3.57 4.63-3.57 8.38 1.19 6.55 3.57 8.4 5.63 2.78 9.76 2.78zm12.51 0c4.12 0 7.38-.93 9.76-2.78s3.57-4.65 3.57-8.4-1.19-6.54-3.57-8.38-5.63-2.76-9.76-2.76V38.6zm26.62-29.74v-3.3c0-.96.32-1.76.95-2.39s1.43-.95 2.39-.95h44.61c.96 0 1.76.32 2.39.95s.95 1.43.95 2.39v3.3c0 .96-.32 1.75-.95 2.37s-1.43.93-2.39.93H1125v37.23c0 .91-.32 1.68-.97 2.3s-1.42.93-2.34.93h-6.64c-.91 0-1.69-.31-2.34-.93s-.97-1.39-.97-2.3V12.16h-15.68c-.96 0-1.76-.31-2.39-.93s-.94-1.41-.94-2.37zm60.43 32.38c3.16 0 4.75 1.59 4.75 4.78v2.21c0 1.48-.4 2.64-1.21 3.48s-1.99 1.27-3.53 1.27h-4.32c-1.55 0-2.72-.42-3.53-1.27s-1.21-2-1.21-3.48v-2.21c0-1.55.41-2.73 1.23-3.55s1.99-1.23 3.52-1.23h4.3z" class="st2"/><path d="M1216.23 49.32V5.55c0-.91.32-1.7.95-2.36s1.41-.98 2.32-.98h45.63c.91 0 1.69.33 2.34.98s.97 1.44.97 2.36v43.77c0 .91-.33 1.69-1 2.34s-1.46.97-2.37.97h-6.54c-.91 0-1.7-.32-2.36-.97s-.98-1.42-.98-2.34V12.16h-25.7v37.16c0 .91-.32 1.69-.97 2.34s-1.42.97-2.34.97h-6.61c-.91 0-1.7-.32-2.36-.97s-.98-1.42-.98-2.34zm62.3 0V5.55c0-.91.32-1.7.95-2.36s1.41-.98 2.32-.98h26.82c14.18 0 21.27 6.53 21.27 19.6s-7.09 19.6-21.27 19.6h-16.84v7.91c0 .91-.32 1.69-.97 2.34s-1.42.97-2.34.97h-6.61c-.91 0-1.7-.32-2.36-.97s-.97-1.42-.97-2.34zm13.25-17.86h12.83c3.94 0 6.93-.66 8.96-1.99s3.06-3.88 3.06-7.66-1.02-6.34-3.06-7.66-5.03-1.99-8.96-1.99h-12.83v19.3zm44.58 17.86V5.55c0-.96.32-1.76.95-2.39s1.43-.95 2.39-.95h6.19c.91 0 1.69.32 2.34.95s.97 1.41.97 2.32v35.19l20-35.12c.54-.91 1.28-1.7 2.21-2.36s1.8-.98 2.6-.98h10.37c.91 0 1.69.33 2.32.98s.95 1.44.95 2.36v43.77c0 .91-.33 1.69-.98 2.34s-1.44.97-2.36.97h-6.19c-.91 0-1.69-.32-2.34-.97s-.97-1.42-.97-2.34V16.7l-18.35 32.62c-.54.91-1.3 1.69-2.29 2.34s-1.93.97-2.85.97h-11.64c-.91 0-1.7-.32-2.36-.97s-.96-1.42-.96-2.34zm57.2.36 8.93-33.75c2.39-9.12 10.16-13.69 23.31-13.71h17.58c.82 0 1.52.34 2.09 1.02s.86 1.45.86 2.32v43.77c0 .91-.31 1.69-.93 2.34s-1.39.97-2.3.97h-6.71c-.91 0-1.69-.32-2.34-.97s-.97-1.42-.97-2.34V12.16h-8.58c-2.25 0-4.21.64-5.89 1.92s-2.81 2.99-3.39 5.15l-8.05 30.09c-.23.96-.76 1.75-1.58 2.37s-1.69.93-2.6.93h-7.14c-.82 0-1.42-.26-1.81-.77s-.57-.95-.56-1.3.03-.64.08-.87zm109.35-2.27c-4.79 4.21-11.82 6.31-21.09 6.31s-16.31-2.1-21.11-6.31-7.21-10.87-7.21-19.99 2.4-15.77 7.21-19.97 11.84-6.29 21.11-6.29 16.3 2.1 21.09 6.29 7.19 10.85 7.19 19.97-2.39 15.78-7.19 19.99zm-9.61-32.54c-2.37-2.81-6.19-4.22-11.48-4.22s-9.12 1.41-11.5 4.22-3.57 7-3.57 12.57 1.19 9.75 3.57 12.55 6.21 4.2 11.5 4.2 9.11-1.4 11.48-4.2 3.55-6.98 3.55-12.55-1.19-9.76-3.55-12.57zm19.16-11.28c0-.96.55-1.44 1.65-1.44h8.12c2.11 0 3.8 1.14 5.06 3.41l5.45 9.7c1.41 2.51 2.89 4.32 4.45 5.45s3.37 1.69 5.43 1.69h1.58V5.55c0-.91.32-1.71.97-2.39s1.42-1.02 2.34-1.02h6.64c.91 0 1.69.34 2.34 1.02s.97 1.48.97 2.39v16.84h1.58c2.06 0 3.87-.56 5.43-1.69s3.03-2.94 4.41-5.45l5.48-9.7c1.24-2.27 2.92-3.41 5.03-3.41h8.16c.91 0 1.46.32 1.65.95v.49c0 .59-.19 1.24-.56 1.97l-7.63 13.82c-1.12 2.02-2.37 3.68-3.73 4.99s-3.15 2.24-5.38 2.78c1.55.33 3.13 1.3 4.76 2.92s3.08 3.38 4.34 5.27l8.75 13.99c.63 1.03.81 1.84.54 2.43s-.85.88-1.74.88h-8.09c-.91 0-1.9-.32-2.95-.97s-1.86-1.42-2.43-2.34l-6.22-9.81c-1.48-2.39-2.96-4.19-4.45-5.4s-3.29-1.81-5.4-1.81h-1.58v17.09c0 .91-.32 1.68-.97 2.3s-1.42.93-2.34.93h-6.64c-.91 0-1.69-.31-2.34-.93s-.97-1.39-.97-2.3V32.31h-1.58c-2.11 0-3.91.6-5.4 1.81s-2.98 3.01-4.48 5.4l-6.19 9.81c-.56.91-1.37 1.69-2.43 2.34s-2.04.97-2.95.97h-8.09c-.91 0-1.49-.32-1.72-.95-.09-.19-.14-.46-.14-.83s.21-.87.63-1.53l8.79-13.99c1.27-1.9 2.71-3.66 4.34-5.27s3.21-2.59 4.73-2.92c-2.2-.54-3.99-1.46-5.36-2.78s-2.61-2.98-3.71-4.99l-7.63-13.82c-.34-.73-.52-1.39-.52-1.97zm83 45.66V5.48c0-.91.33-1.69.98-2.32s1.44-.95 2.36-.95h40.54c.91 0 1.69.33 2.34.98s.97 1.44.97 2.36v3.3c0 .91-.32 1.69-.97 2.34s-1.42.97-2.34.97h-30.62v10.23h26.37c.91 0 1.69.32 2.34.97s.97 1.42.97 2.34V29c0 .91-.32 1.69-.97 2.34s-1.42.97-2.34.97h-26.37v10.37h30.55c.89 0 1.65.32 2.29.95s.95 1.41.95 2.32v3.38c0 .91-.33 1.69-.98 2.34s-1.44.97-2.36.97h-40.36c-.91 0-1.7-.32-2.36-.97s-.99-1.46-.99-2.42zm53.65.07V5.55c0-.91.33-1.7.98-2.36s1.46-.98 2.43-.98h6.54c.91 0 1.69.33 2.34.98s.97 1.44.97 2.36v15.82h24.19V5.55c0-.91.33-1.7.98-2.36s1.44-.98 2.36-.98h6.54c.96 0 1.76.33 2.41.98s.97 1.44.97 2.36v43.77c0 .91-.33 1.69-1 2.34s-1.46.97-2.37.97h-6.54c-.91 0-1.7-.31-2.36-.93s-.98-1.39-.98-2.3V31.32h-24.19v18.07c0 .91-.32 1.68-.97 2.3s-1.42.93-2.34.93h-6.54c-.91 0-1.71-.32-2.39-.97s-1.03-1.41-1.03-2.33zm60.78 0V5.55c0-.96.32-1.76.95-2.39s1.43-.95 2.39-.95h6.19c.91 0 1.69.32 2.34.95s.97 1.41.97 2.32v35.19l20-35.12c.54-.91 1.28-1.7 2.21-2.36s1.8-.98 2.6-.98h10.37c.91 0 1.69.33 2.32.98s.95 1.44.95 2.36v43.77c0 .91-.33 1.69-.98 2.34s-1.44.97-2.36.97h-6.19c-.91 0-1.69-.32-2.34-.97s-.97-1.42-.97-2.34V16.7L1730 49.32c-.54.91-1.3 1.69-2.29 2.34s-1.93.97-2.85.97h-11.64c-.91 0-1.7-.32-2.36-.97s-.97-1.42-.97-2.34zm58.54 1.3c0-.38.15-.81.46-1.3l9.7-16c-6.63-2.88-9.94-7.78-9.91-14.7 0-5.23 1.81-9.27 5.43-12.13s8.16-4.29 13.62-4.29h27.53c.87 0 1.61.32 2.23.95s.93 1.41.93 2.32v43.91c0 .91-.32 1.68-.97 2.3s-1.42.93-2.34.93h-6.64c-.91 0-1.69-.32-2.34-.97s-.97-1.42-.97-2.34V34.77h-12.59l-8.44 14.62c-1.2 2.16-2.89 3.23-5.1 3.23h-8.86c-1.15.01-1.74-.66-1.74-2zm13.46-32.27c0 4.12 1.95 6.19 5.84 6.19h17.44V12.16h-17.44c-3.89 0-5.84 2.07-5.84 6.19zm53.51 22.89c3.16 0 4.75 1.59 4.75 4.78v2.21c0 1.48-.4 2.64-1.21 3.48s-1.99 1.27-3.53 1.27h-4.32c-1.55 0-2.72-.42-3.53-1.27s-1.21-2-1.21-3.48v-2.21c0-1.55.41-2.73 1.23-3.55s1.99-1.23 3.52-1.23h4.3z" class="st3"/><path d="M2137.27 41.24c3.16 0 4.75 1.59 4.75 4.78v2.21c0 1.48-.4 2.64-1.21 3.48-.81.84-1.99 1.27-3.53 1.27h-4.32c-1.55 0-2.72-.42-3.53-1.27s-1.21-2-1.21-3.48v-2.21c0-1.55.41-2.73 1.23-3.55s1.99-1.23 3.52-1.23h4.3zm-264 8.15V5.55c0-.91.33-1.7.98-2.36s1.44-.98 2.36-.98h6.54c.96 0 1.76.33 2.41.98s.97 1.44.97 2.36v43.77c0 .91-.33 1.69-1 2.34s-1.46.97-2.37.97h-6.54c-.91 0-1.7-.31-2.36-.93s-.99-1.39-.99-2.31zm23.34 0V5.62c0-.96.33-1.77.98-2.43s1.44-.98 2.36-.98h19.65c10.17 0 17.57 2.03 22.2 6.1s6.94 10.44 6.94 19.12-2.31 15.05-6.94 19.11-12.03 6.08-22.2 6.08h-19.65c-.91 0-1.7-.31-2.36-.93s-.98-1.38-.98-2.3zm13.25-6.71h9.35c6.3 0 10.59-1.15 12.87-3.45s3.41-6.23 3.41-11.79-1.14-9.5-3.41-11.81-6.56-3.46-12.87-3.46h-9.35v30.51zm46.09 6.71V5.62c0-.96.33-1.77.98-2.43s1.44-.98 2.36-.98h19.65c10.17 0 17.57 2.03 22.2 6.1s6.94 10.44 6.94 19.12-2.31 15.05-6.94 19.11-12.03 6.08-22.2 6.08h-19.65c-.91 0-1.7-.31-2.36-.93s-.98-1.38-.98-2.3zm13.26-6.71h9.35c6.3 0 10.59-1.15 12.87-3.45s3.41-6.23 3.41-11.79-1.14-9.5-3.41-11.81-6.56-3.46-12.87-3.46h-9.35v30.51zm43.2-15.61c0-8.93 2.4-15.48 7.21-19.65s11.87-6.26 21.18-6.26 16.35 1.98 21.09 5.94 7.12 10.37 7.12 19.23c0 4.69-.91 8.51-2.74 11.46-1.29 2.13-2.67 4.03-4.15 5.7h5.59c.96 0 1.76.32 2.39.97s.95 1.42.95 2.34v2.88c0 .91-.32 1.69-.95 2.34s-1.43.97-2.39.97h-27c-9.26 0-16.29-2.09-21.09-6.26s-7.21-10.73-7.21-19.66zm28.3 16.42c10.03 0 15.05-5.72 15.05-17.16 0-5.32-1.18-9.26-3.55-11.83s-6.18-3.85-11.44-3.85-9.09 1.39-11.5 4.18-3.6 6.87-3.6 12.23 1.2 9.45 3.6 12.23 6.22 4.2 11.44 4.2zm35.37 5.9V5.62c0-.96.33-1.77.98-2.43s1.44-.98 2.36-.98h19.65c10.17 0 17.57 2.03 22.2 6.1s6.94 10.44 6.94 19.12-2.31 15.05-6.94 19.11-12.03 6.08-22.2 6.08h-19.65c-.91 0-1.7-.31-2.36-.93s-.98-1.38-.98-2.3zm13.26-6.71h9.35c6.3 0 10.59-1.15 12.87-3.45s3.41-6.23 3.41-11.79-1.14-9.5-3.41-11.81-6.56-3.46-12.87-3.46h-9.35v30.51z" class="st2"/></svg>