<svg xmlns="http://www.w3.org/2000/svg" xml:space="preserve" id="Layer_1" x="0" y="0" version="1.1" viewBox="0 0 68.82 1990.72"><style>.st0{fill:#f8d652}.st1{fill:#ef6cf6}.st2{fill:#fff}.st3{fill:#8cff31}</style><path d="M63.34 1990.72H19.5c-.96 0-1.76-.32-2.39-.95s-.95-1.43-.95-2.39v-33.96c0-.96.32-1.75.95-2.37.63-.62 1.43-.93 2.39-.93h3.3c.96 0 1.75.31 2.37.93.62.62.93 1.41.93 2.37v24.05h37.23c.91 0 1.68.32 2.3.97s.93 1.42.93 2.34v6.61c0 .91-.31 1.7-.93 2.36-.61.65-1.38.97-2.29.97zm-.14-46.37H19.43c-.91 0-1.69-.33-2.32-.98-.63-.66-.95-1.44-.95-2.36v-40.54c0-.91.33-1.69.98-2.34.66-.64 1.44-.97 2.36-.97h3.3c.91 0 1.69.32 2.34.97s.97 1.42.97 2.34v30.62h10.23v-26.37c0-.91.32-1.69.97-2.34.65-.64 1.42-.97 2.34-.97h3.3c.91 0 1.69.32 2.34.97s.97 1.42.97 2.34v26.37h10.37v-30.55c0-.89.32-1.65.95-2.29.63-.63 1.41-.95 2.32-.95h3.38c.91 0 1.69.33 2.34.98.65.66.97 1.44.97 2.36V1941c0 .91-.32 1.7-.97 2.36s-1.45.99-2.42.99zm.08-53.65H19.51c-.96 0-1.76-.32-2.39-.95s-.95-1.43-.95-2.39v-6.19c0-.91.32-1.69.95-2.34.63-.64 1.41-.97 2.32-.97h35.19l-35.12-20.01c-.91-.54-1.7-1.28-2.36-2.22s-.98-1.8-.98-2.6v-10.37c0-.91.33-1.69.98-2.32.66-.63 1.44-.95 2.36-.95h43.77c.91 0 1.69.33 2.34.98.65.66.97 1.44.97 2.36v6.19c0 .91-.32 1.69-.97 2.34-.64.64-1.42.97-2.34.97H30.66l32.62 18.35c.91.54 1.69 1.3 2.34 2.29.65.98.97 1.93.97 2.85v11.64c0 .91-.32 1.7-.97 2.36s-1.43.98-2.34.98zm-61.49-13.85c-1.2 0-1.79-.64-1.79-1.93v-2.88c0-1.15.6-1.96 1.79-2.43 1.67-.68 2.5-2.2 2.5-4.55 0-2.36-.83-3.86-2.5-4.52-1.2-.49-1.79-1.31-1.79-2.46v-2.88c0-1.29.6-1.93 1.79-1.93 3.21 0 5.75 1.08 7.63 3.24s2.81 5.01 2.81 8.56-.94 6.4-2.81 8.56c-1.87 2.14-4.42 3.22-7.63 3.22zm61.43-47.49H19.59c-.96 0-1.77-.32-2.43-.95s-.98-1.41-.98-2.32v-14.31c0-.91.33-1.78.98-2.6.66-.82 1.44-1.37 2.36-1.65l30.02-10.37-30.02-10.37c-.91-.28-1.7-.83-2.36-1.65-.66-.82-.98-1.69-.98-2.6v-14.31c0-.91.33-1.68.98-2.3.66-.62 1.46-.93 2.43-.93h43.63c.96 0 1.76.32 2.41.97s.97 1.42.97 2.34v6.33c0 .91-.32 1.69-.97 2.34-.64.64-1.45.97-2.41.97H28.87l34.56 12.41c.87.33 1.61.9 2.23 1.72s.93 1.69.93 2.6v5.03c0 .91-.31 1.78-.93 2.58-.62.81-1.37 1.39-2.23 1.74l-34.56 12.37h34.35c.96 0 1.76.32 2.41.97s.97 1.42.97 2.34v6.33c0 .91-.32 1.7-.97 2.36-.65.63-1.45.96-2.41.96zm.07-74.47H19.52c-.96 0-1.76-.32-2.39-.95s-.95-1.43-.95-2.39v-6.19c0-.91.32-1.69.95-2.34.63-.64 1.41-.97 2.32-.97h35.19l-35.12-20.01c-.91-.54-1.7-1.28-2.36-2.22s-.98-1.8-.98-2.6v-10.37c0-.91.33-1.69.98-2.32.66-.63 1.44-.95 2.36-.95h43.77c.91 0 1.69.33 2.34.98.65.66.97 1.44.97 2.36v6.19c0 .91-.32 1.69-.97 2.34-.64.64-1.42.97-2.34.97H30.67l32.62 18.35c.91.54 1.69 1.3 2.34 2.29.65.98.97 1.93.97 2.85v11.64c0 .91-.32 1.7-.97 2.36-.64.66-1.42.99-2.34.98zm-42.56-83.95h-3.45c-.91 0-1.69-.33-2.34-.98-.64-.66-.97-1.46-.97-2.43v-6.47c0-.96.32-1.76.97-2.41.65-.64 1.42-.97 2.34-.97h3.45c0-8.02 1.65-14.39 4.94-19.12s8.54-7.1 15.73-7.1c7.2 0 12.44 2.37 15.73 7.1s4.94 11.11 4.94 19.13h3.45c.91 0 1.69.33 2.34 1 .64.67.97 1.46.97 2.37v6.47c0 .91-.32 1.71-.97 2.39s-1.42 1.02-2.34 1.02h-3.45c0 8.02-1.65 14.38-4.94 19.11-3.29 4.72-8.54 7.08-15.73 7.08s-12.44-2.36-15.73-7.09c-3.3-4.72-4.94-11.09-4.94-19.1zm31.85-.39H30.26c0 4.13.92 7.38 2.76 9.76s4.64 3.57 8.38 3.57c3.75 0 6.55-1.19 8.4-3.57 1.85-2.38 2.78-5.63 2.78-9.76zm0-12.51c0-4.12-.93-7.38-2.78-9.76s-4.65-3.57-8.4-3.57-6.54 1.19-8.39 3.57c-1.84 2.38-2.76 5.63-2.76 9.76h22.33zm10.73-33.05H19.54c-.96 0-1.76-.32-2.39-.95s-.95-1.43-.95-2.39v-6.19c0-.91.32-1.69.95-2.34.63-.64 1.41-.97 2.32-.97h35.19l-35.12-20.01c-.91-.54-1.7-1.28-2.36-2.22s-.98-1.8-.98-2.6v-10.37c0-.91.33-1.69.98-2.32.66-.63 1.44-.95 2.36-.95h43.77c.91 0 1.69.33 2.34.98.65.66.97 1.44.97 2.36v6.19c0 .91-.32 1.69-.97 2.34-.64.64-1.42.97-2.34.97H30.69l32.62 18.35c.91.54 1.69 1.3 2.34 2.29.65.98.97 1.93.97 2.85v11.64c0 .91-.32 1.7-.97 2.36-.65.65-1.43.98-2.34.98zm1.77-113.52c1.03 0 1.55.61 1.55 1.83v8.05c0 .91-.32 1.9-.97 2.95-.64 1.05-1.42 1.88-2.34 2.46l-9.81 6.19c-2.39 1.48-4.19 2.96-5.4 4.46s-1.81 3.3-1.81 5.41v7.56h17.09c.91 0 1.68.32 2.3.97s.93 1.42.93 2.34v6.61c0 .91-.33 1.7-1 2.36s-1.46.98-2.37.98h-43.7c-.91 0-1.71-.33-2.39-.98-.68-.66-1.02-1.44-1.02-2.36v-6.61c0-.91.34-1.69 1.02-2.34.68-.64 1.48-.97 2.39-.97h16.84v-7.56c0-2.06-.56-3.87-1.69-5.43-1.12-1.56-2.94-3.04-5.45-4.45l-9.7-5.45c-2.25-1.24-3.39-2.93-3.41-5.06v-8.12c0-1.12.49-1.69 1.48-1.69.54 0 1.18.2 1.93.6l13.82 7.63c2.02 1.1 3.68 2.34 4.99 3.71s2.24 3.16 2.78 5.36c.33-1.55 1.3-3.13 2.92-4.76s3.38-3.06 5.27-4.31l13.99-8.79c.68-.39 1.27-.59 1.76-.59zm-1.69-.91-33.47-8.83c-9.12-2.39-13.69-10.17-13.71-23.35v-18.95c0-.87.33-1.59.98-2.16.66-.57 1.42-.86 2.29-.86h43.91c.91 0 1.68.33 2.3.98.62.66.93 1.44.93 2.36v6.61c0 .96-.31 1.75-.93 2.37s-1.41.93-2.37.93h-8.86v25l8.86 2.36c.96.23 1.75.76 2.37 1.58.62.82.93 1.69.93 2.6v6.93c0 .91-.26 1.57-.79 1.97s-.99.59-1.39.58c-.39-.01-.75-.05-1.05-.12zm-18.88-18.5v-22.39H26.16v10.02c0 2.25.64 4.21 1.92 5.89s2.99 2.81 5.15 3.39l11.28 3.09zm18.82-45.7H19.49c-.91 0-1.69-.33-2.32-.98-.63-.66-.95-1.44-.95-2.36v-6.61c0-.91.33-1.69.98-2.34.66-.64 1.44-.97 2.36-.97h37.12v-23.62h-37.2c-.91 0-1.69-.32-2.32-.97-.63-.64-.95-1.42-.95-2.34v-6.64c0-.89.33-1.66.98-2.32.66-.66 1.44-.98 2.36-.98h37.12v-3.8c0-.91.33-1.7.98-2.36.66-.66 1.44-.98 2.36-.98h3.3c.91 0 1.69.33 2.34.98.65.66.97 1.44.97 2.36l-.01 50.59c0 .91-.32 1.7-.97 2.36-.62.66-1.4.98-2.31.98zm0-62.29H19.56c-.96 0-1.76-.32-2.39-.95s-.95-1.43-.95-2.39v-6.19c0-.91.32-1.69.95-2.34.63-.64 1.41-.97 2.32-.97h35.19l-35.12-20.01c-.91-.54-1.7-1.28-2.36-2.22s-.98-1.8-.98-2.6v-10.37c0-.91.33-1.69.98-2.32.66-.63 1.44-.95 2.36-.95h43.77c.91 0 1.69.33 2.34.98.65.66.97 1.44.97 2.36v6.19c0 .91-.32 1.69-.97 2.34-.64.64-1.42.97-2.34.97H30.71l32.62 18.35c.91.54 1.69 1.3 2.34 2.29.65.98.97 1.93.97 2.85v11.64c0 .91-.32 1.7-.97 2.36-.64.65-1.42.98-2.34.98zm1.31-58.54c-.37 0-.81-.15-1.3-.46l-16-9.7c-2.88 6.63-7.78 9.94-14.7 9.91-5.23 0-9.27-1.81-12.13-5.43s-4.29-8.16-4.29-13.62v-27.53c0-.87.32-1.61.95-2.23.63-.62 1.41-.93 2.32-.93H63.4c.91 0 1.68.32 2.3.97s.93 1.42.93 2.34v6.64c0 .91-.32 1.69-.97 2.34-.64.64-1.42.97-2.34.97H48.77v12.59l14.62 8.44c2.16 1.2 3.23 2.9 3.23 5.1v8.86c.02 1.16-.64 1.74-1.98 1.74zm-32.27-13.47c4.13 0 6.19-1.94 6.19-5.84v-17.44H26.19v17.44c-.01 3.9 2.05 5.84 6.18 5.84zm22.89-53.5c0-3.16 1.6-4.75 4.78-4.75h2.21c1.48 0 2.64.4 3.48 1.21s1.27 1.99 1.27 3.53v4.32c0 1.55-.42 2.72-1.27 3.53s-2 1.21-3.48 1.21h-2.21c-1.55 0-2.73-.41-3.55-1.23s-1.23-1.99-1.23-3.52v-4.3z" class="st0"/><path d="M63.35 1220.7H19.58c-.96 0-1.76-.32-2.39-.95s-.95-1.43-.95-2.39v-6.19c0-.91.32-1.69.95-2.34.63-.64 1.41-.97 2.32-.97H54.7l-35.12-20.01c-.91-.54-1.7-1.28-2.36-2.22s-.98-1.8-.98-2.6v-10.37c0-.91.33-1.69.98-2.32.66-.63 1.44-.95 2.36-.95h43.77c.91 0 1.69.33 2.34.98.65.66.97 1.44.97 2.36v6.19c0 .91-.32 1.69-.97 2.34-.64.64-1.42.97-2.34.97H30.73l32.62 18.35c.91.54 1.69 1.3 2.34 2.29.65.98.97 1.93.97 2.85v11.64c0 .91-.32 1.7-.97 2.36-.65.65-1.43.98-2.34.98zm.08-61.35H19.59c-.96 0-1.76-.32-2.39-.95s-.95-1.43-.95-2.39v-33.96c0-.96.32-1.75.95-2.37.63-.62 1.43-.93 2.39-.93h3.3c.96 0 1.75.31 2.37.93.62.62.93 1.41.93 2.37v24.05h37.23c.91 0 1.68.32 2.3.97s.93 1.42.93 2.34v6.61c0 .91-.31 1.7-.93 2.36-.61.64-1.38.97-2.29.97zm-.07-46.37H19.59c-.91 0-1.7-.32-2.36-.95s-.98-1.41-.98-2.32v-26.82c0-14.18 6.54-21.27 19.6-21.27 13.07 0 19.6 7.09 19.6 21.27v16.84h7.91c.91 0 1.69.32 2.34.97s.97 1.42.97 2.34v6.61c0 .91-.32 1.7-.97 2.36-.65.64-1.42.97-2.34.97zm-17.86-13.26v-12.83c0-3.94-.66-6.93-1.99-8.96-1.32-2.04-3.88-3.06-7.66-3.06s-6.34 1.02-7.66 3.06-1.99 5.03-1.99 8.96v12.83h19.3zm17.8-44.58H19.6c-.96 0-1.76-.32-2.39-.95-.63-.63-.95-1.43-.95-2.39v-6.61c0-.91.33-1.69.98-2.34.66-.64 1.44-.97 2.36-.97h13.82v-14.48c0-5.51 1.47-10.08 4.4-13.71s7.01-5.45 12.23-5.45c5.23 0 9.3 1.82 12.23 5.45s4.39 8.2 4.39 13.71v24.57c0 .84-.33 1.58-1 2.21-.67.65-1.46.96-2.37.96zm-6.58-13.25v-14.48c0-3.94-2.23-5.91-6.7-5.91-4.46 0-6.7 1.97-6.7 5.91v14.48h13.4zm6.72-40.67H19.6c-.91 0-1.7-.33-2.36-.98-.66-.66-.98-1.44-.98-2.36v-6.68c0-.96.33-1.76.98-2.41.66-.64 1.44-.97 2.36-.97h43.77c.91 0 1.69.33 2.34 1 .65.67.97 1.46.97 2.37v6.68c0 .91-.31 1.7-.93 2.36s-1.39.99-2.31.99zm-8.15-30.42c0-3.16 1.6-4.75 4.78-4.75h2.21c1.48 0 2.64.4 3.48 1.21.84.81 1.27 1.99 1.27 3.53v4.32c0 1.55-.42 2.72-1.27 3.53-.84.81-2 1.21-3.48 1.21h-2.21c-1.55 0-2.73-.41-3.55-1.23s-1.23-1.99-1.23-3.52v-4.3z" class="st1"/><path d="M63.45 932.94H19.61c-.91 0-1.7-.33-2.36-.98-.66-.66-.98-1.44-.98-2.36v-6.54c0-.96.33-1.76.98-2.41.66-.64 1.44-.97 2.36-.97h43.77c.91 0 1.69.33 2.34 1s.97 1.46.97 2.37v6.54c0 .91-.31 1.7-.93 2.36-.63.66-1.4.99-2.31.99zm0-23.34H19.68c-.96 0-1.77-.33-2.43-.98-.66-.66-.98-1.44-.98-2.36v-19.65c0-10.17 2.04-17.57 6.1-22.2 4.07-4.63 10.44-6.94 19.13-6.94s15.05 2.32 19.11 6.95 6.08 12.03 6.08 22.2v19.65c0 .91-.31 1.7-.93 2.36-.62.64-1.39.97-2.31.97zm-6.71-13.26v-9.35c0-6.3-1.15-10.59-3.44-12.87-2.3-2.27-6.23-3.41-11.79-3.41-5.57 0-9.5 1.14-11.81 3.41-2.31 2.27-3.46 6.56-3.46 12.87v9.35h30.5zm6.72-46.09H19.69c-.96 0-1.77-.33-2.43-.98-.66-.66-.98-1.44-.98-2.36v-19.65c0-10.17 2.04-17.57 6.1-22.2 4.07-4.63 10.44-6.94 19.13-6.94s15.05 2.32 19.11 6.95 6.08 12.03 6.08 22.2v19.65c0 .91-.31 1.7-.93 2.36-.63.65-1.4.97-2.31.97zM56.75 837v-9.35c0-6.3-1.15-10.59-3.44-12.87-2.3-2.27-6.23-3.41-11.79-3.41-5.57 0-9.5 1.14-11.81 3.41-2.31 2.27-3.46 6.56-3.46 12.87V837h30.5zm-15.61-43.21c-8.93 0-15.48-2.4-19.65-7.21s-6.26-11.87-6.26-21.18c0-9.32 1.98-16.35 5.94-21.09 3.96-4.75 10.37-7.12 19.23-7.12 4.69 0 8.51.91 11.46 2.74 2.13 1.29 4.03 2.67 5.69 4.15v-5.59c0-.96.32-1.76.97-2.39.62-.62 1.46-.96 2.34-.95h2.88c.91 0 1.69.32 2.34.95.64.63.97 1.43.97 2.39v27c0 9.26-2.09 16.29-6.26 21.09-4.17 4.81-10.72 7.21-19.65 7.21zm16.42-28.3c0-10.03-5.72-15.05-17.15-15.05-5.32 0-9.26 1.18-11.83 3.55s-3.85 6.18-3.85 11.44 1.39 9.09 4.18 11.5c2.79 2.4 6.87 3.6 12.23 3.6 5.37 0 9.45-1.2 12.23-3.6 2.8-2.4 4.19-6.21 4.19-11.44zm5.91-35.36H19.7c-.96 0-1.77-.33-2.43-.98-.66-.66-.98-1.44-.98-2.36v-19.65c0-10.17 2.04-17.57 6.1-22.2 4.07-4.63 10.44-6.94 19.13-6.94s15.05 2.32 19.11 6.95 6.08 12.03 6.08 22.2v19.65c0 .91-.31 1.7-.93 2.36-.63.64-1.39.97-2.31.97zm-6.71-13.26v-9.35c0-6.3-1.15-10.59-3.44-12.87-2.3-2.27-6.23-3.41-11.79-3.41-5.57 0-9.5 1.14-11.81 3.41-2.31 2.27-3.46 6.56-3.46 12.87v9.35h30.5zm-1.44-53.02c0-3.16 1.6-4.75 4.78-4.75h2.21c1.48 0 2.64.4 3.48 1.21.84.81 1.27 1.99 1.27 3.53v4.32c0 1.55-.42 2.72-1.27 3.53-.84.81-2 1.21-3.48 1.21H60.1c-1.55 0-2.73-.41-3.55-1.23s-1.23-1.99-1.23-3.52v-4.3z" class="st2"/><path d="M22.95 605.11h-3.3c-.96 0-1.76-.32-2.39-.95s-.95-1.43-.95-2.39v-44.61c0-.96.32-1.76.95-2.39s1.43-.95 2.39-.95h3.3c.96 0 1.75.32 2.37.95.62.63.93 1.43.93 2.39v15.68h37.23c.91 0 1.68.32 2.3.97.62.64.93 1.42.93 2.34v6.64c0 .91-.31 1.69-.93 2.34-.62.64-1.39.97-2.3.97H26.25v15.68c0 .96-.31 1.76-.93 2.39-.62.62-1.41.94-2.37.94zm40.47-57.02H19.65c-.91 0-1.7-.32-2.36-.95s-.98-1.41-.98-2.32V518c0-14.18 6.54-21.27 19.6-21.27 13.07 0 19.6 7.09 19.6 21.27v16.84h7.91c.91 0 1.69.32 2.34.97.65.64.97 1.42.97 2.34v6.61c0 .91-.32 1.7-.97 2.36-.65.64-1.43.97-2.34.97zm-17.86-13.26V522c0-3.94-.66-6.93-1.99-8.97-1.32-2.04-3.88-3.06-7.66-3.06s-6.34 1.02-7.66 3.06c-1.32 2.04-1.99 5.03-1.99 8.96v12.83l19.3.01zm17.8-44.58H19.59c-.91 0-1.69-.33-2.32-.98-.63-.66-.95-1.44-.95-2.36v-40.54c0-.91.33-1.69.98-2.34.66-.64 1.44-.97 2.36-.97h3.3c.91 0 1.69.32 2.34.97.65.64.97 1.42.97 2.34v30.62H36.5v-26.37c0-.91.32-1.69.97-2.34.65-.64 1.42-.97 2.34-.97h3.3c.91 0 1.69.32 2.34.97.65.64.97 1.42.97 2.34v26.37h10.37v-30.55c0-.89.32-1.65.95-2.29.63-.63 1.41-.95 2.32-.95h3.38c.91 0 1.69.33 2.34.98.65.66.97 1.44.97 2.36v40.36c0 .91-.32 1.7-.97 2.36-.66.67-1.46.99-2.42.99zm.07-53.64H19.66c-.91 0-1.7-.33-2.36-.98-.66-.66-.98-1.46-.98-2.43v-6.54c0-.91.33-1.69.98-2.34.66-.64 1.44-.97 2.36-.97h15.82v-24.19H19.66c-.91 0-1.7-.33-2.36-.98-.66-.66-.98-1.44-.98-2.36v-6.54c0-.96.33-1.76.98-2.41.66-.64 1.44-.97 2.36-.97h43.77c.91 0 1.69.33 2.34 1 .65.67.97 1.46.97 2.37v6.54c0 .91-.31 1.7-.93 2.36-.62.66-1.39.98-2.3.98H45.44v24.19h18.07c.91 0 1.68.32 2.3.97.62.64.93 1.42.93 2.34v6.54c0 .91-.32 1.71-.97 2.39-.64.69-1.42 1.03-2.34 1.03zm.08-56.64-33.47-8.83c-9.12-2.39-13.69-10.17-13.71-23.35v-18.95c0-.87.33-1.59.98-2.16.66-.57 1.42-.86 2.29-.86h43.91c.91 0 1.68.33 2.3.98.62.66.93 1.44.93 2.36v6.61c0 .96-.31 1.75-.93 2.37s-1.41.93-2.37.93h-8.86v25l8.86 2.36c.96.23 1.75.76 2.37 1.58.62.82.93 1.69.93 2.6v6.93c0 .91-.26 1.57-.79 1.97s-.99.59-1.39.58-.75-.05-1.05-.12zm-18.88-18.5v-22.39H26.28v10.02c0 2.25.64 4.21 1.92 5.89 1.28 1.68 2.99 2.81 5.15 3.39l11.28 3.09zm-26.92-41.9c-.96 0-1.44-.55-1.44-1.65v-8.12c0-2.11 1.14-3.8 3.41-5.06l9.7-5.45c2.51-1.41 4.32-2.89 5.45-4.45s1.69-3.37 1.69-5.43v-1.58H19.68c-.91 0-1.71-.32-2.39-.97-.68-.64-1.02-1.42-1.02-2.34v-6.64c0-.91.34-1.69 1.02-2.34.68-.64 1.48-.97 2.39-.97h16.84v-1.58c0-2.06-.56-3.87-1.69-5.43-1.12-1.56-2.94-3.03-5.45-4.41l-9.7-5.49c-2.27-1.24-3.41-2.92-3.41-5.03v-8.16c0-.91.32-1.46.95-1.65h.49c.59 0 1.24.19 1.97.56l13.82 7.63c2.02 1.13 3.68 2.37 4.99 3.73 1.31 1.36 2.24 3.15 2.78 5.38.33-1.55 1.3-3.13 2.92-4.76 1.62-1.63 3.38-3.08 5.27-4.34l13.99-8.75c1.03-.63 1.84-.81 2.43-.54.59.27.88.85.88 1.74v8.09c0 .91-.32 1.9-.97 2.95-.64 1.05-1.42 1.86-2.34 2.43l-9.81 6.22c-2.39 1.48-4.19 2.96-5.4 4.45-1.21 1.49-1.81 3.29-1.81 5.4v1.58h17.09c.91 0 1.68.32 2.3.97.62.64.93 1.42.93 2.34v6.64c0 .91-.31 1.69-.93 2.34-.62.64-1.39.97-2.3.97H46.43v1.58c0 2.11.6 3.91 1.81 5.4 1.21 1.49 3.01 2.98 5.4 4.48l9.81 6.19c.91.56 1.69 1.37 2.34 2.43.65 1.05.97 2.04.97 2.95v8.09c0 .91-.32 1.49-.95 1.72-.19.09-.46.14-.83.14-.36 0-.87-.21-1.53-.63l-13.99-8.79c-1.9-1.27-3.66-2.71-5.27-4.34s-2.59-3.21-2.92-4.73c-.54 2.2-1.46 3.99-2.78 5.36-1.31 1.37-2.98 2.61-4.99 3.71L19.68 319c-.73.38-1.39.57-1.97.57zm45.67-83H19.61c-.91 0-1.69-.33-2.32-.98s-.95-1.44-.95-2.36v-40.54c0-.91.33-1.69.98-2.34.66-.64 1.44-.97 2.36-.97h3.3c.91 0 1.69.32 2.34.97.65.64.97 1.42.97 2.34v30.62h10.23v-26.37c0-.91.32-1.69.97-2.34.65-.64 1.42-.97 2.34-.97h3.3c.91 0 1.69.32 2.34.97.65.64.97 1.42.97 2.34v26.37h10.37v-30.55c0-.89.32-1.65.95-2.29.63-.63 1.41-.95 2.32-.95h3.38c.91 0 1.69.33 2.34.98.65.66.97 1.44.97 2.36v40.36c0 .91-.32 1.7-.97 2.36s-1.46.99-2.42.99zm.08-53.65H19.69c-.91 0-1.7-.32-2.36-.95-.66-.63-.98-1.41-.98-2.32v-26.82c0-14.18 6.54-21.27 19.6-21.27 13.07 0 19.6 7.09 19.6 21.27v16.84h7.91c.91 0 1.69.32 2.34.97.65.64.97 1.42.97 2.34v6.61c0 .91-.32 1.7-.97 2.36-.65.64-1.43.97-2.34.97zM45.6 169.66v-12.83c0-3.94-.66-6.93-1.99-8.97-1.32-2.04-3.88-3.06-7.66-3.06s-6.34 1.02-7.66 3.06-1.99 5.03-1.99 8.96v12.83l19.3.01zm17.79-44.57h-43.7c-.96 0-1.76-.32-2.39-.95s-.95-1.43-.95-2.39v-6.61c0-.91.33-1.69.98-2.34.66-.64 1.44-.97 2.36-.97h13.82V97.35c0-5.51 1.47-10.08 4.4-13.71 2.93-3.63 7.01-5.45 12.23-5.45 5.23 0 9.3 1.82 12.23 5.45 2.93 3.63 4.39 8.2 4.39 13.71v24.57c0 .84-.33 1.58-1 2.21s-1.45.96-2.37.96zm-6.57-13.26V97.35c0-3.94-2.23-5.91-6.7-5.91s-6.7 1.97-6.7 5.91v14.48h13.4zm6.72-40.67H19.7c-.91 0-1.7-.33-2.36-.98-.66-.66-.98-1.44-.98-2.36v-6.68c0-.96.33-1.76.98-2.41.66-.64 1.44-.97 2.36-.97h43.77c.91 0 1.69.33 2.34 1 .65.67.97 1.46.97 2.37v6.68c0 .91-.31 1.7-.93 2.36-.63.66-1.4.99-2.31.99zm-8.15-30.41c0-3.16 1.6-4.75 4.78-4.75h2.21c1.48 0 2.64.4 3.48 1.21.84.81 1.27 1.99 1.27 3.53v4.32c0 1.55-.42 2.72-1.27 3.53-.85.81-2 1.21-3.48 1.21h-2.21c-1.55 0-2.73-.41-3.55-1.23s-1.23-1.99-1.23-3.52v-4.3z" class="st3"/></svg>