<svg xmlns="http://www.w3.org/2000/svg" xml:space="preserve" id="Layer_1" x="0" y="0" version="1.1" viewBox="0 0 54.84 2183.03"><style>.st0{fill:#8cff31}.st1{fill:#fff}.st2{fill:#f8d652}.st3{fill:#ef6cf6}</style><path d="M5.52 0h43.77c.96 0 1.76.32 2.39.95s.95 1.43.95 2.39v6.19c0 .91-.32 1.69-.95 2.34-.63.64-1.41.97-2.32.97H14.17l35.12 20c.91.54 1.7 1.28 2.36 2.21.66.94.98 1.8.98 2.6v10.37c0 .91-.33 1.69-.98 2.32s-1.44.95-2.36.95H5.52c-.91 0-1.69-.33-2.34-.98-.64-.66-.97-1.44-.97-2.36v-6.19c0-.91.32-1.69.97-2.34.64-.65 1.42-.97 2.34-.97h32.62L5.52 20.11c-.91-.54-1.69-1.3-2.34-2.29s-.97-1.93-.97-2.85V3.34c0-.91.32-1.7.97-2.36C3.83.33 4.61 0 5.52 0zM5.45 61.35h43.84c.96 0 1.76.32 2.39.95s.95 1.43.95 2.39v33.96c0 .96-.32 1.75-.95 2.37s-1.43.93-2.39.93h-3.3c-.96 0-1.75-.31-2.37-.93s-.93-1.41-.93-2.37V74.6H5.45c-.91 0-1.68-.32-2.3-.97s-.93-1.42-.93-2.34v-6.61c0-.91.31-1.7.93-2.36.62-.64 1.39-.97 2.3-.97zM5.52 107.72h43.77c.91 0 1.7.32 2.36.95s.98 1.41.98 2.32v26.82c0 14.18-6.53 21.27-19.6 21.27s-19.6-7.09-19.6-21.27v-16.84H5.52c-.91 0-1.69-.32-2.34-.97-.64-.65-.97-1.42-.97-2.34v-6.61c0-.91.32-1.7.97-2.36.65-.64 1.43-.97 2.34-.97zm17.86 13.25v12.83c0 3.94.66 6.93 1.99 8.96s3.88 3.06 7.66 3.06 6.34-1.02 7.66-3.06 1.99-5.03 1.99-8.96v-12.83h-19.3zM5.59 165.55h43.7c.96 0 1.76.32 2.39.95s.95 1.43.95 2.39v6.61c0 .91-.33 1.69-.98 2.34-.66.64-1.44.97-2.36.97H35.47v14.48c0 5.51-1.46 10.08-4.39 13.71s-7.01 5.45-12.23 5.45-9.3-1.82-12.23-5.45c-2.93-3.63-4.39-8.2-4.39-13.71v-24.57c0-.84.33-1.58 1-2.21s1.45-.96 2.36-.96zm6.57 13.25v14.48c0 3.94 2.23 5.91 6.7 5.91s6.7-1.97 6.7-5.91V178.8h-13.4zm-6.71 40.68h43.84c.91 0 1.7.33 2.36.98.66.66.98 1.44.98 2.36v6.68c0 .96-.33 1.76-.98 2.41-.66.64-1.44.97-2.36.97H5.52c-.91 0-1.69-.33-2.34-1s-.97-1.46-.97-2.37v-6.68c0-.91.31-1.7.93-2.36.63-.66 1.4-.99 2.31-.99zM13.61 249.89c0 3.16-1.59 4.75-4.78 4.75H6.61c-1.48 0-2.64-.4-3.48-1.21s-1.27-1.99-1.27-3.53v-4.32c0-1.55.42-2.72 1.27-3.53s2-1.21 3.48-1.21h2.21c1.55 0 2.73.41 3.55 1.23.82.82 1.23 1.99 1.23 3.52l.01 4.3z" class="st0"/><path d="M45.98 283.43h3.3c.96 0 1.76.32 2.39.95s.95 1.43.95 2.39v44.61c0 .96-.32 1.76-.95 2.39s-1.43.95-2.39.95h-3.3c-.96 0-1.75-.32-2.37-.95s-.93-1.43-.93-2.39V315.7H5.45c-.91 0-1.68-.32-2.3-.97s-.93-1.42-.93-2.34v-6.64c0-.91.31-1.69.93-2.34s1.39-.97 2.3-.97h37.23v-15.68c0-.96.31-1.76.93-2.39s1.41-.94 2.37-.94zM5.52 340.45h43.77c.91 0 1.7.32 2.36.95s.98 1.41.98 2.32v26.82c0 14.18-6.53 21.27-19.6 21.27s-19.6-7.09-19.6-21.27V353.7H5.52c-.91 0-1.69-.32-2.34-.97-.64-.65-.97-1.42-.97-2.34v-6.61c0-.91.32-1.7.97-2.36.65-.64 1.43-.97 2.34-.97zm17.86 13.26v12.83c0 3.94.66 6.93 1.99 8.96s3.88 3.06 7.66 3.06 6.34-1.02 7.66-3.06 1.99-5.03 1.99-8.96v-12.83h-19.3zM5.59 398.29h43.77c.91 0 1.69.33 2.32.98.63.66.95 1.44.95 2.36v40.54c0 .91-.33 1.69-.98 2.34-.66.64-1.44.97-2.36.97h-3.3c-.91 0-1.69-.32-2.34-.97-.64-.65-.97-1.42-.97-2.34v-30.62H32.45v26.37c0 .91-.32 1.69-.97 2.34-.64.64-1.42.97-2.34.97h-3.3c-.91 0-1.69-.32-2.34-.97-.64-.65-.97-1.42-.97-2.34v-26.37H12.16v30.55c0 .89-.32 1.65-.95 2.29s-1.41.95-2.32.95H5.52c-.91 0-1.69-.33-2.34-.98-.64-.66-.97-1.44-.97-2.36v-40.36c0-.91.32-1.7.97-2.36.65-.67 1.45-.99 2.41-.99zM5.52 451.93h43.77c.91 0 1.7.33 2.36.98.66.66.98 1.46.98 2.43v6.54c0 .91-.33 1.69-.98 2.34-.66.64-1.44.97-2.36.97H33.47v24.19h15.82c.91 0 1.7.33 2.36.98.66.66.98 1.44.98 2.36v6.54c0 .96-.33 1.76-.98 2.41-.66.64-1.44.97-2.36.97H5.52c-.91 0-1.69-.33-2.34-1s-.97-1.46-.97-2.37v-6.54c0-.91.31-1.7.93-2.36.62-.66 1.39-.98 2.3-.98h18.07V465.2H5.45c-.91 0-1.68-.32-2.3-.97s-.93-1.42-.93-2.34v-6.54c0-.91.32-1.71.97-2.39.64-.69 1.42-1.03 2.33-1.03zM5.45 508.57l33.47 8.82c9.12 2.39 13.69 10.17 13.71 23.34v18.95c0 .87-.33 1.59-.98 2.16-.66.57-1.42.86-2.29.86H5.45c-.91 0-1.68-.33-2.3-.98-.62-.66-.93-1.44-.93-2.36v-6.61c0-.96.31-1.75.93-2.37s1.41-.93 2.37-.93h8.86v-25l-8.86-2.36c-.96-.23-1.75-.76-2.37-1.58s-.93-1.69-.93-2.6V511c0-.91.26-1.57.79-1.97s.99-.59 1.39-.58c.39.01.74.05 1.05.12zm18.88 18.49v22.39h18.35v-10.02c0-2.25-.64-4.21-1.92-5.89s-2.99-2.81-5.15-3.39l-11.28-3.09zM51.26 568.97c.96 0 1.44.55 1.44 1.65v8.12c0 2.11-1.14 3.8-3.41 5.06l-9.7 5.45c-2.51 1.41-4.32 2.89-5.45 4.45-1.12 1.56-1.69 3.37-1.69 5.43v1.58h16.84c.91 0 1.71.32 2.39.97.68.64 1.02 1.42 1.02 2.34v6.64c0 .91-.34 1.69-1.02 2.34-.68.64-1.48.97-2.39.97H32.45v1.58c0 2.06.56 3.87 1.69 5.43 1.12 1.56 2.94 3.03 5.45 4.41l9.7 5.48c2.27 1.24 3.41 2.92 3.41 5.03v8.16c0 .91-.32 1.46-.95 1.65h-.49c-.59 0-1.24-.19-1.97-.56l-13.82-7.63c-2.02-1.12-3.68-2.37-4.99-3.73s-2.24-3.15-2.78-5.38c-.33 1.55-1.3 3.13-2.92 4.76s-3.38 3.08-5.27 4.34l-13.99 8.75c-1.03.63-1.84.81-2.43.54s-.88-.85-.88-1.74V637c0-.91.32-1.9.97-2.95s1.42-1.86 2.34-2.43l9.81-6.22c2.39-1.48 4.19-2.96 5.4-4.45s1.81-3.29 1.81-5.4v-1.58H5.45c-.91 0-1.68-.32-2.3-.97-.62-.65-.93-1.42-.93-2.34v-6.64c0-.91.31-1.69.93-2.34s1.39-.97 2.3-.97h17.09v-1.58c0-2.11-.6-3.91-1.81-5.4-1.21-1.49-3.01-2.98-5.4-4.48l-9.81-6.19c-.91-.56-1.69-1.37-2.34-2.43s-.97-2.04-.97-2.95v-8.09c0-.91.32-1.49.95-1.72.19-.09.46-.14.83-.14s.87.21 1.53.63l13.99 8.79c1.9 1.27 3.66 2.71 5.27 4.34 1.62 1.63 2.59 3.2 2.92 4.73.54-2.2 1.46-3.99 2.78-5.36s2.98-2.61 4.99-3.71l13.82-7.63c.73-.36 1.38-.55 1.97-.55zM5.59 651.97h43.77c.91 0 1.69.33 2.32.98s.95 1.44.95 2.36v40.54c0 .91-.33 1.69-.98 2.34s-1.44.97-2.36.97h-3.3c-.91 0-1.69-.32-2.34-.97s-.97-1.42-.97-2.34v-30.62H32.45v26.37c0 .91-.32 1.69-.97 2.34-.64.64-1.42.97-2.34.97h-3.3c-.91 0-1.69-.32-2.34-.97s-.97-1.42-.97-2.34v-26.37H12.16v30.55c0 .89-.32 1.65-.95 2.29s-1.41.95-2.32.95H5.52c-.91 0-1.69-.33-2.34-.98s-.97-1.44-.97-2.36v-40.36c0-.91.32-1.7.97-2.36s1.45-.99 2.41-.99zM5.52 705.62h43.77c.91 0 1.7.32 2.36.95s.98 1.41.98 2.32v26.82c0 14.18-6.53 21.27-19.6 21.27s-19.6-7.09-19.6-21.27v-16.84H5.52c-.91 0-1.69-.32-2.34-.97s-.97-1.42-.97-2.34v-6.61c0-.91.32-1.7.97-2.36s1.43-.97 2.34-.97zm17.86 13.26v12.83c0 3.94.66 6.93 1.99 8.96s3.88 3.06 7.66 3.06 6.34-1.02 7.66-3.06 1.99-5.03 1.99-8.96v-12.83h-19.3zM5.59 763.45h43.7c.96 0 1.76.32 2.39.95s.95 1.43.95 2.39v6.61c0 .91-.33 1.69-.98 2.34s-1.44.97-2.36.97H35.47v14.48c0 5.51-1.46 10.08-4.39 13.71s-7.01 5.45-12.23 5.45-9.3-1.82-12.23-5.45-4.39-8.2-4.39-13.71v-24.57c0-.84.33-1.58 1-2.21s1.45-.96 2.36-.96zm6.57 13.26v14.48c0 3.94 2.23 5.91 6.7 5.91s6.7-1.97 6.7-5.91v-14.48h-13.4zm-6.71 40.67h43.84c.91 0 1.7.33 2.36.98s.98 1.44.98 2.36v6.68c0 .96-.33 1.76-.98 2.41s-1.44.97-2.36.97H5.52c-.91 0-1.69-.33-2.34-1s-.97-1.46-.97-2.37v-6.68c0-.91.31-1.7.93-2.36s1.4-.99 2.31-.99zM13.61 847.79c0 3.16-1.59 4.75-4.78 4.75H6.61c-1.48 0-2.64-.4-3.48-1.21s-1.27-1.99-1.27-3.53v-4.32c0-1.55.42-2.72 1.27-3.53s2-1.21 3.48-1.21h2.21c1.55 0 2.73.41 3.55 1.23s1.23 1.99 1.23 3.52l.01 4.3z" class="st1"/><path d="M8.16 914.5c4.15-4.35 10.56-6.52 19.25-6.52s15.11 2.17 19.27 6.52 6.24 10.87 6.24 19.56v7.84c0 5.32-1.38 10.03-4.15 14.12s-6.55 6.13-11.36 6.13c-1.38 0-2.37-.41-2.97-1.23s-.9-1.62-.9-2.39v-4.18c0-2.16 1.29-3.83 3.87-5.03 3.7-1.73 5.55-4.62 5.55-8.65v-6.26c0-5.13-1.1-8.61-3.3-10.44s-6.28-2.74-12.23-2.74-10.04.91-12.25 2.74-3.32 5.31-3.32 10.44v7c0 4.03 1.85 6.9 5.55 8.61 2.6 1.2 3.9 2.88 3.9 5.06v4.18c0 1.1-.41 1.97-1.23 2.62s-1.71.97-2.67.97c-4.8 0-8.58-2.04-11.34-6.12s-4.13-8.78-4.13-14.1v-8.58c-.01-8.68 2.07-15.2 6.22-19.55zM7.44 1016.21c-4.21-4.79-6.31-11.82-6.31-21.09s2.1-16.31 6.31-21.11 10.87-7.21 19.99-7.21 15.77 2.4 19.97 7.21 6.29 11.84 6.29 21.11-2.1 16.3-6.29 21.09-10.85 7.19-19.97 7.19-15.79-2.4-19.99-7.19zm32.53-9.62c2.81-2.37 4.22-6.19 4.22-11.48s-1.41-9.12-4.22-11.5-7-3.57-12.57-3.57-9.75 1.19-12.55 3.57-4.2 6.21-4.2 11.5 1.4 9.11 4.2 11.48 6.98 3.55 12.55 3.55 9.76-1.18 12.57-3.55zM48.09 1053.21h3.45c.91 0 1.69.33 2.34.98s.97 1.46.97 2.43v6.47c0 .96-.32 1.76-.97 2.41s-1.42.97-2.34.97h-3.45c0 8.02-1.65 14.39-4.94 19.12s-8.54 7.1-15.73 7.1-12.44-2.37-15.73-7.1-4.94-11.11-4.94-19.12H3.3c-.91 0-1.69-.33-2.34-1-.64-.68-.96-1.47-.96-2.38v-6.47c0-.91.32-1.71.97-2.39s1.42-1.02 2.34-1.02h3.45c0-8.02 1.65-14.38 4.94-19.11s8.54-7.08 15.73-7.08 12.44 2.36 15.73 7.08 4.93 11.1 4.93 19.11zm-31.85.39h22.32c0-4.12-.92-7.38-2.76-9.76s-4.63-3.57-8.38-3.57-6.55 1.19-8.4 3.57-2.78 5.63-2.78 9.76zm0 12.51c0 4.12.93 7.38 2.78 9.76s4.65 3.57 8.4 3.57 6.54-1.19 8.38-3.57 2.76-5.63 2.76-9.76H16.24zM45.98 1092.73h3.3c.96 0 1.76.32 2.39.95s.95 1.43.95 2.39v44.61c0 .96-.32 1.76-.95 2.39s-1.43.95-2.39.95h-3.3c-.96 0-1.75-.32-2.37-.95s-.93-1.43-.93-2.39V1125H5.45c-.91 0-1.68-.32-2.3-.97s-.93-1.42-.93-2.34v-6.64c0-.91.31-1.69.93-2.34s1.39-.97 2.3-.97h37.23v-15.68c0-.96.31-1.76.93-2.39s1.41-.94 2.37-.94zM13.61 1153.16c0 3.16-1.59 4.75-4.78 4.75H6.61c-1.48 0-2.64-.4-3.48-1.21s-1.27-1.99-1.27-3.53v-4.32c0-1.55.42-2.72 1.27-3.53s2-1.21 3.48-1.21h2.21c1.55 0 2.73.41 3.55 1.23s1.23 1.99 1.23 3.52l.01 4.3z" class="st2"/><path d="M5.52 1216.23h43.77c.91 0 1.7.32 2.36.95s.98 1.41.98 2.32v45.63c0 .91-.33 1.69-.98 2.34s-1.44.97-2.36.97H5.52c-.91 0-1.69-.33-2.34-1s-.97-1.46-.97-2.37v-6.54c0-.91.32-1.7.97-2.36s1.42-.98 2.34-.98h37.16v-25.7H5.52c-.91 0-1.69-.32-2.34-.97s-.97-1.42-.97-2.34v-6.61c0-.91.32-1.7.97-2.36s1.43-.98 2.34-.98zM5.52 1278.53h43.77c.91 0 1.7.32 2.36.95s.98 1.41.98 2.32v26.82c0 14.18-6.53 21.27-19.6 21.27s-19.6-7.09-19.6-21.27v-16.84H5.52c-.91 0-1.69-.32-2.34-.97s-.97-1.42-.97-2.34v-6.61c0-.91.32-1.7.97-2.36s1.43-.97 2.34-.97zm17.86 13.25v12.83c0 3.94.66 6.93 1.99 8.96s3.88 3.06 7.66 3.06 6.34-1.02 7.66-3.06 1.99-5.03 1.99-8.96v-12.83h-19.3zM5.52 1336.36h43.77c.96 0 1.76.32 2.39.95s.95 1.43.95 2.39v6.19c0 .91-.32 1.69-.95 2.34s-1.41.97-2.32.97H14.17l35.12 20c.91.54 1.7 1.28 2.36 2.21s.98 1.8.98 2.6v10.37c0 .91-.33 1.69-.98 2.32s-1.44.95-2.36.95H5.52c-.91 0-1.69-.33-2.34-.98s-.97-1.44-.97-2.36v-6.19c0-.91.32-1.69.97-2.34s1.42-.97 2.34-.97h32.62l-32.62-18.35c-.91-.54-1.69-1.3-2.34-2.29s-.97-1.93-.97-2.85v-11.64c0-.91.32-1.7.97-2.36s1.43-.96 2.34-.96zM5.17 1393.56l33.75 8.93c9.12 2.39 13.69 10.16 13.71 23.31v17.58c0 .82-.34 1.52-1.02 2.09s-1.45.86-2.32.86H5.52c-.91 0-1.69-.31-2.34-.93s-.97-1.39-.97-2.3v-6.71c0-.91.32-1.69.97-2.34s1.42-.97 2.34-.97h37.16v-8.58c0-2.25-.64-4.21-1.92-5.89s-2.99-2.81-5.15-3.39l-30.09-8.05c-.96-.23-1.75-.76-2.37-1.58s-.93-1.69-.93-2.6v-7.14c0-.82.26-1.42.77-1.81s.95-.57 1.3-.56.64.03.88.08zM7.44 1502.91c-4.21-4.79-6.31-11.82-6.31-21.09s2.1-16.31 6.31-21.11 10.87-7.21 19.99-7.21 15.77 2.4 19.97 7.21 6.29 11.84 6.29 21.11-2.1 16.3-6.29 21.09-10.85 7.19-19.97 7.19-15.79-2.39-19.99-7.19zm32.53-9.61c2.81-2.37 4.22-6.19 4.22-11.48s-1.41-9.12-4.22-11.5-7-3.57-12.57-3.57-9.75 1.19-12.55 3.57-4.2 6.21-4.2 11.5 1.4 9.11 4.2 11.48 6.98 3.55 12.55 3.55 9.76-1.19 12.57-3.55zM51.26 1512.46c.96 0 1.44.55 1.44 1.65v8.12c0 2.11-1.14 3.8-3.41 5.06l-9.7 5.45c-2.51 1.41-4.32 2.89-5.45 4.45s-1.69 3.37-1.69 5.43v1.58h16.84c.91 0 1.71.32 2.39.97s1.02 1.42 1.02 2.34v6.64c0 .91-.34 1.69-1.02 2.34s-1.48.97-2.39.97H32.45v1.58c0 2.06.56 3.87 1.69 5.43s2.94 3.03 5.45 4.41l9.7 5.48c2.27 1.24 3.41 2.92 3.41 5.03v8.16c0 .91-.32 1.46-.95 1.65h-.49c-.59 0-1.24-.19-1.97-.56l-13.82-7.63c-2.02-1.12-3.68-2.37-4.99-3.73s-2.24-3.15-2.78-5.38c-.33 1.55-1.3 3.13-2.92 4.76s-3.38 3.08-5.27 4.34l-13.99 8.75c-1.03.63-1.84.81-2.43.54s-.88-.85-.88-1.74v-8.09c0-.91.32-1.9.97-2.95s1.42-1.86 2.34-2.43l9.81-6.22c2.39-1.48 4.19-2.96 5.4-4.45s1.81-3.29 1.81-5.4v-1.58H5.45c-.91 0-1.68-.32-2.3-.97s-.93-1.42-.93-2.34v-6.64c0-.91.31-1.69.93-2.34s1.39-.97 2.3-.97h17.09v-1.58c0-2.11-.6-3.91-1.81-5.4s-3.01-2.98-5.4-4.48l-9.81-6.19c-.91-.56-1.69-1.37-2.34-2.43s-.97-2.04-.97-2.95v-8.09c0-.91.32-1.49.95-1.72.19-.09.46-.14.83-.14s.87.21 1.53.63l13.99 8.79c1.9 1.27 3.66 2.71 5.27 4.34s2.59 3.21 2.92 4.73c.54-2.2 1.46-3.99 2.78-5.36s2.98-2.61 4.99-3.71l13.82-7.63c.73-.34 1.38-.52 1.97-.52zM5.59 1595.46h43.77c.91 0 1.69.33 2.32.98s.95 1.44.95 2.36v40.54c0 .91-.33 1.69-.98 2.34s-1.44.97-2.36.97h-3.3c-.91 0-1.69-.32-2.34-.97s-.97-1.42-.97-2.34v-30.62H32.45v26.37c0 .91-.32 1.69-.97 2.34-.64.64-1.42.97-2.34.97h-3.3c-.91 0-1.69-.32-2.34-.97s-.97-1.42-.97-2.34v-26.37H12.16v30.55c0 .89-.32 1.65-.95 2.29s-1.41.95-2.32.95H5.52c-.91 0-1.69-.33-2.34-.98s-.97-1.44-.97-2.36v-40.36c0-.91.32-1.7.97-2.36s1.45-.99 2.41-.99zM5.52 1649.11h43.77c.91 0 1.7.33 2.36.98s.98 1.46.98 2.43v6.54c0 .91-.33 1.69-.98 2.34s-1.44.97-2.36.97H33.47v24.19h15.82c.91 0 1.7.33 2.36.98s.98 1.44.98 2.36v6.54c0 .96-.33 1.76-.98 2.41s-1.44.97-2.36.97H5.52c-.91 0-1.69-.33-2.34-1s-.97-1.46-.97-2.37v-6.54c0-.91.31-1.7.93-2.36s1.39-.98 2.3-.98h18.07v-24.19H5.45c-.91 0-1.68-.32-2.3-.97s-.93-1.42-.93-2.34v-6.54c0-.91.32-1.71.97-2.39s1.42-1.03 2.33-1.03zM5.52 1709.89h43.77c.96 0 1.76.32 2.39.95s.95 1.43.95 2.39v6.19c0 .91-.32 1.69-.95 2.34s-1.41.97-2.32.97H14.17l35.12 20c.91.54 1.7 1.28 2.36 2.21s.98 1.8.98 2.6v10.37c0 .91-.33 1.69-.98 2.32s-1.44.95-2.36.95H5.52c-.91 0-1.69-.33-2.34-.98s-.97-1.44-.97-2.36v-6.19c0-.91.32-1.69.97-2.34s1.42-.97 2.34-.97h32.62L5.52 1730c-.91-.54-1.69-1.3-2.34-2.29s-.97-1.93-.97-2.85v-11.64c0-.91.32-1.7.97-2.36s1.43-.97 2.34-.97zM4.22 1768.43c.38 0 .81.15 1.3.46l16 9.7c2.88-6.63 7.78-9.94 14.7-9.91 5.23 0 9.27 1.81 12.13 5.43s4.29 8.16 4.29 13.62v27.53c0 .87-.32 1.61-.95 2.23s-1.41.93-2.32.93H5.45c-.91 0-1.68-.32-2.3-.97s-.93-1.42-.93-2.34v-6.64c0-.91.32-1.69.97-2.34s1.42-.97 2.34-.97h14.55v-12.59l-14.62-8.44c-2.16-1.2-3.23-2.89-3.23-5.1v-8.86c-.02-1.15.65-1.74 1.99-1.74zm32.27 13.46c-4.12 0-6.19 1.95-6.19 5.84v17.44h12.38v-17.44c0-3.89-2.06-5.84-6.19-5.84zM13.61 1835.4c0 3.16-1.59 4.75-4.78 4.75H6.61c-1.48 0-2.64-.4-3.48-1.21s-1.27-1.99-1.27-3.53v-4.32c0-1.55.42-2.72 1.27-3.53s2-1.21 3.48-1.21h2.21c1.55 0 2.73.41 3.55 1.23s1.23 1.99 1.23 3.52l.01 4.3z" class="st3"/><path d="M13.61 2144.51c0 3.16-1.59 4.75-4.78 4.75H6.61c-1.48 0-2.64-.4-3.48-1.21-.84-.81-1.27-1.99-1.27-3.53v-4.32c0-1.55.42-2.72 1.27-3.53s2-1.21 3.48-1.21h2.21c1.55 0 2.73.41 3.55 1.23.82.82 1.23 1.99 1.23 3.52l.01 4.3zM5.45 1873.27h43.84c.91 0 1.7.33 2.36.98s.98 1.44.98 2.36v6.54c0 .96-.33 1.76-.98 2.41s-1.44.97-2.36.97H5.52c-.91 0-1.69-.33-2.34-1s-.97-1.46-.97-2.37v-6.54c0-.91.31-1.7.93-2.36s1.4-.99 2.31-.99zM5.45 1896.61h43.77c.96 0 1.77.33 2.43.98s.98 1.44.98 2.36v19.65c0 10.17-2.03 17.57-6.1 22.2s-10.44 6.94-19.13 6.94-15.05-2.31-19.11-6.94-6.08-12.03-6.08-22.2v-19.65c0-.91.31-1.7.93-2.36s1.4-.98 2.31-.98zm6.71 13.25v9.35c0 6.3 1.15 10.59 3.45 12.87s6.23 3.41 11.79 3.41 9.5-1.14 11.81-3.41 3.46-6.56 3.46-12.87v-9.35H12.16zM5.45 1955.95h43.77c.96 0 1.77.33 2.43.98s.98 1.44.98 2.36v19.65c0 10.17-2.03 17.57-6.1 22.2s-10.44 6.94-19.13 6.94-15.05-2.31-19.11-6.94-6.08-12.03-6.08-22.2v-19.65c0-.91.31-1.7.93-2.36s1.4-.98 2.31-.98zm6.71 13.26v9.35c0 6.3 1.15 10.59 3.45 12.87s6.23 3.41 11.79 3.41 9.5-1.14 11.81-3.41 3.46-6.56 3.46-12.87v-9.35H12.16zM27.77 2012.41c8.93 0 15.48 2.4 19.65 7.21s6.26 11.87 6.26 21.18-1.98 16.35-5.94 21.09-10.37 7.12-19.23 7.12c-4.69 0-8.51-.91-11.46-2.74-2.13-1.29-4.03-2.67-5.7-4.15v5.59c0 .96-.32 1.76-.97 2.39s-1.42.95-2.34.95H5.17c-.91 0-1.69-.32-2.34-.95s-.97-1.43-.97-2.39v-27c0-9.26 2.09-16.29 6.26-21.09s10.72-7.21 19.65-7.21zm-16.41 28.3c0 10.03 5.72 15.05 17.16 15.05 5.32 0 9.26-1.18 11.83-3.55s3.85-6.18 3.85-11.44-1.39-9.09-4.18-11.5-6.87-3.6-12.23-3.6-9.45 1.2-12.23 3.6-4.2 6.22-4.2 11.44zM5.45 2076.08h43.77c.96 0 1.77.33 2.43.98s.98 1.44.98 2.36v19.65c0 10.17-2.03 17.57-6.1 22.2s-10.44 6.94-19.13 6.94-15.05-2.31-19.11-6.94-6.08-12.03-6.08-22.2v-19.65c0-.91.31-1.7.93-2.36s1.4-.98 2.31-.98zm6.71 13.26v9.35c0 6.3 1.15 10.59 3.45 12.87s6.23 3.41 11.79 3.41 9.5-1.14 11.81-3.41 3.46-6.56 3.46-12.87v-9.35H12.16z" class="st2"/></svg>